<svg width="269" height="123" viewBox="0 0 269 123" fill="none" xmlns="http://www.w3.org/2000/svg">
<path fill-rule="evenodd" clip-rule="evenodd" d="M42.327 44.9996C44.3942 41.6599 47.0265 38.7807 49.7471 35.9877C51.2263 34.4626 52.8215 33.0419 54.4282 31.6466C54.7279 31.3859 55.3607 31.3319 55.7627 31.4536C55.9637 31.5157 56.0854 32.1909 56.0624 32.5722C55.6812 38.6395 53.622 43.8465 48.609 47.6777C46.2742 49.4578 44.1473 51.5158 41.9676 53.4912C41.6322 53.7909 41.3382 54.3479 41.3462 54.782C41.4117 57.691 41.5599 60.5978 41.6793 63.5068C41.8286 63.5343 41.9779 63.5642 42.1237 63.5883C42.5533 62.6569 42.9966 61.7324 43.4008 60.7884C45.4519 56.0407 48.5252 52.1027 52.6286 48.941C54.3111 47.6456 55.8649 46.1939 57.5267 44.8767C57.9103 44.5769 58.5017 44.5402 59.2046 44.3162C59.2195 45.0271 59.2161 45.3831 59.2356 45.738C59.3504 47.842 57.9206 49.4326 57.4142 51.3252C55.7696 57.4269 51.8235 61.7221 46.6658 65.0744C45.8045 65.6348 44.7985 66.0437 44.0738 66.7454C43.3204 67.4781 42.3385 68.4669 42.3132 69.3627C42.2616 71.6286 42.6911 73.9013 42.9277 76.1741C43.0758 76.204 43.2297 76.2304 43.3801 76.2626C46.5028 67.9202 52.1899 62.0057 60.2175 58.1389C60.8526 58.9555 60.5999 59.7261 60.3197 60.4726C59.4699 62.7453 58.7257 65.0709 57.6909 67.2587C56.1394 70.541 54.156 73.4948 50.8749 75.4276C48.6584 76.7311 46.644 78.3699 44.5343 79.8457C43.6443 80.467 43.4203 81.2503 43.5754 82.3332C44.6377 89.7729 51.0024 113.74 53.5473 120.866C53.8172 121.612 54.3099 122.618 53.2671 122.94C52.1795 123.283 52.0509 122.072 51.8545 121.365C50.7934 117.461 44.4137 97.0276 43.5432 93.077C42.9759 90.4964 42.5406 87.8435 42.4729 85.2124C42.3925 81.952 40.6422 80.2304 37.9802 78.8959C33.5058 76.6553 30.1638 73.2042 27.6855 68.8803C27.1423 67.9283 26.4383 67.0543 25.9571 66.0724C25.2439 64.6242 24.2114 63.2553 24.2149 61.0422C28.0185 62.58 30.5095 65.4407 33.7137 67.1336C37.105 68.9309 38.3764 72.6174 40.919 75.2795C40.9248 73.3202 40.6009 71.4609 40.5182 69.5912C40.439 67.7859 39.6259 66.5547 38.1685 65.6107C34.8713 63.4643 32.0622 60.8297 30.049 57.4028C29.0866 55.7605 28.0105 54.1733 27.14 52.4805C26.173 50.5867 25.322 48.6252 24.5399 46.6464C24.2447 45.9022 23.5786 44.9146 24.5916 44.2496C25.655 43.5491 26.1592 44.6596 26.7575 45.212C27.5144 45.9091 28.1621 46.7303 28.904 47.4435C31.8325 50.2491 34.6899 53.1087 36.8662 56.5782C37.6299 57.7841 38.5578 58.8923 39.7488 60.5059C39.7132 58.8188 39.6041 57.6681 39.6753 56.5254C39.851 53.6956 38.5004 51.6537 36.5285 49.8207C35.0229 48.4196 33.5827 46.9301 32.2345 45.3763C28.6513 41.2614 26.6266 36.2645 24.4997 31.3376C24.3688 31.0402 24.4572 30.6497 24.4411 30.2972C25.6056 29.5909 26.39 30.2742 27.0699 30.8989C30.2569 33.8573 33.1532 37.0604 35.1159 40.9984C36.0037 42.7727 36.7823 44.6033 37.6758 46.3719C38.1111 47.2149 38.7048 47.9775 39.2308 48.7825C39.6063 45.815 39.5834 43.0219 39.7235 40.2347C39.8246 38.071 39.1309 36.4333 37.3795 35.0908C34.5268 32.9041 32.4159 29.9848 30.9069 26.8128C29.3289 23.5087 28.3137 19.9393 27.1101 16.4664C26.9401 15.9818 27.0665 15.3961 27.0561 14.5864C27.821 14.8586 28.3562 14.9229 28.7202 15.2043C33.0476 18.5554 36.5928 22.5015 38.2156 27.8854C38.4166 28.5664 38.6015 29.3221 39.6741 30.1628C39.1378 25.2819 38.7852 20.8879 38.1409 16.5411C37.2773 10.6978 38.5808 5.35061 41.5277 0C41.9905 0.547809 42.551 0.997999 42.8473 1.5883C43.5983 3.09966 44.385 4.62709 44.88 6.23147C45.3256 7.67506 45.7563 9.2783 45.5702 10.7322C45.2027 13.6355 44.3219 16.4699 43.82 19.3617C43.5225 21.0992 42.9391 22.5888 41.6414 23.8119C41.3003 24.1277 40.9753 24.6767 40.9764 25.1142C40.9948 26.7393 41.1533 28.3655 41.2693 30.1444C41.6839 29.8872 41.8516 29.8355 41.917 29.7275C42.0732 29.4852 42.2237 29.2222 42.2926 28.9454C43.3204 24.896 45.6713 21.6241 48.4643 18.6554C49.1683 17.9146 49.6621 17.3117 49.2866 16.3206C50.8726 16.0082 51.4227 16.4389 51.4468 18.0765C51.4641 19.473 51.3366 20.8696 51.2562 22.2684C50.976 27.1435 49.1718 31.2664 45.2636 34.3489C44.3391 35.077 43.4513 35.8522 42.5958 36.663C42.1881 37.0535 41.6598 37.5542 41.6058 38.0469C41.3635 40.5103 41.0339 42.9886 41.5105 45.7024C41.9182 45.3544 42.1869 45.2201 42.327 44.9996ZM56.7228 48.5035C51.8097 49.8736 44.8743 58.5788 43.5203 65.1261C50.4339 61.3373 54.837 56.0373 56.7228 48.5035ZM45.1131 77.5098C47.8063 75.5138 50.4752 73.7429 52.8732 71.6688C53.9677 70.7179 54.6326 69.2076 55.3378 67.8697C56.3783 65.8737 57.2809 63.8008 58.241 61.7634C51.6983 64.4439 45.4669 72.6518 45.1131 77.5098ZM45.4795 48.2715C46.9495 46.9508 48.3253 45.5164 49.8149 44.2221C52.7205 41.6989 53.7253 38.3512 54.2927 34.1755C48.2036 38.8324 44.1703 44.3989 41.3279 50.8876C41.4944 51.0335 41.6575 51.177 41.8251 51.3218C43.0448 50.31 44.2955 49.3281 45.4795 48.2715ZM41.8022 20.146C42.5165 17.376 43.3112 14.6197 43.8361 11.8164C44.3471 9.08306 43.8154 6.48298 41.9549 3.79561C38.946 9.67451 39.3985 15.3524 40.6847 21.0924C40.8398 21.1337 41.0052 21.1716 41.1671 21.2129C41.3841 20.8569 41.6977 20.5285 41.8022 20.146ZM27.5523 65.1651C30.4946 71.1026 34.2649 76.1971 40.8444 78.4308C37.3749 73.0056 34.1179 67.4046 27.5523 65.1651ZM26.8448 47.8374C29.6861 54.0482 32.5767 60.2245 39.0183 64.3784C37.9526 59.6733 31.9049 51.4825 26.8448 47.8374ZM42.2868 34.2995C46.822 31.6271 50.0434 27.333 49.3222 20.571C45.4037 24.316 43.5754 29.1453 42.2868 34.2995ZM29.8675 18.6002C29.2899 21.4771 34.4682 31.124 37.7585 33.0867C37.871 28.6537 33.7366 21.1716 29.8675 18.6002ZM36.0508 47.0507C35.2354 43.5962 29.9525 35.3308 27.4271 33.8206C28.9729 38.9564 32.8454 44.2668 36.0508 47.0507Z" fill="white"/>
<path fill-rule="evenodd" clip-rule="evenodd" d="M16.5043 71.4996C17.2451 68.8088 18.4624 66.3178 19.7567 63.8693C20.4596 62.5325 21.2623 61.2451 22.0789 59.9726C22.2305 59.7338 22.6519 59.5707 22.9505 59.573C23.0998 59.5753 23.3169 60.0105 23.3789 60.2758C24.3344 64.4883 23.9738 68.4505 21.3232 72.0658C20.0886 73.7471 19.0504 75.5766 17.9617 77.3601C17.7929 77.6323 17.7044 78.071 17.7963 78.3638C18.4234 80.3346 19.1067 82.2869 19.7716 84.2462C19.8785 84.2347 19.9864 84.2255 20.0909 84.2129C20.1966 83.4905 20.3137 82.7727 20.3998 82.0481C20.8466 78.3994 22.1535 75.1 24.3172 72.122C25.2038 70.9013 25.9733 69.6012 26.8415 68.3701C27.0436 68.0887 27.4387 67.9451 27.8739 67.6511C28.0255 68.1335 28.0956 68.377 28.1794 68.6147C28.6801 70.0261 28.0232 71.3974 28.0577 72.7893C28.1587 77.2786 26.3293 80.9972 23.4846 84.3151C23.0091 84.8709 22.4062 85.3498 22.0525 85.9746C21.685 86.6246 21.2141 87.4951 21.376 88.1107C21.7952 89.6668 22.544 91.1288 23.1607 92.631C23.2675 92.6218 23.3778 92.6092 23.4869 92.6011C23.944 86.2881 26.6359 81.1167 31.3331 76.872C31.9302 77.3015 31.9119 77.8781 31.8705 78.4431C31.7465 80.1623 31.7051 81.8965 31.4376 83.5962C31.0379 86.1434 30.2776 88.5552 28.4286 90.5305C27.1791 91.8627 26.134 93.3832 24.9913 94.813C24.509 95.4148 24.5136 95.9936 24.8351 96.6999C27.0505 101.559 36.191 116.623 39.3549 120.971C39.688 121.426 40.2255 122.013 39.5789 122.441C38.9059 122.893 38.5763 122.092 38.3007 121.65C36.7951 119.201 28.3517 106.55 26.9667 104.03C26.0628 102.386 25.2348 100.664 24.6617 98.8843C23.9531 96.677 22.4154 95.8547 20.3332 95.478C16.8339 94.8463 13.864 93.1639 11.3076 90.7131C10.7472 90.1722 10.0914 89.7185 9.56655 89.1455C8.79021 88.3002 7.81288 87.5744 7.37187 86.0653C10.2729 86.3513 12.5445 87.8029 15.0676 88.314C17.74 88.8606 19.3456 91.1185 21.6115 92.4243C21.2221 91.0875 20.6295 89.8851 20.1989 88.6264C19.7831 87.4113 18.9827 86.7349 17.7998 86.3834C15.1216 85.5818 12.6788 84.3484 10.6197 82.4156C9.63432 81.4876 8.58234 80.6217 7.65095 79.6421C6.61161 78.5453 5.63772 77.3785 4.70863 76.1852C4.35835 75.7374 3.70603 75.1976 4.26303 74.5418C4.84874 73.8516 5.41492 74.5074 5.93402 74.7635C6.58863 75.0873 7.19501 75.5168 7.84388 75.8545C10.4026 77.181 12.9235 78.5579 15.1021 80.4873C15.8646 81.1557 16.7191 81.7254 17.8537 82.5867C17.492 81.444 17.1865 80.6814 17.0062 79.8878C16.5583 77.924 15.2295 76.802 13.5184 75.9475C12.2103 75.2952 10.9298 74.5671 9.69977 73.7781C6.43244 71.6914 4.05057 68.6905 1.61357 65.7574C1.46541 65.5816 1.44704 65.2968 1.3655 65.0603C2.01782 64.3448 2.68966 64.6537 3.27881 64.9443C6.04427 66.3212 8.65928 67.9245 10.7874 70.2156C11.7486 71.2481 12.6444 72.3402 13.6091 73.367C14.0742 73.855 14.6323 74.2559 15.1514 74.6992C14.8127 72.6009 14.2384 70.7014 13.7745 68.7732C13.4104 67.2768 12.6088 66.2994 11.1457 65.7355C8.76379 64.8168 6.74023 63.2492 5.07498 61.3898C3.33738 59.4535 1.93054 57.2233 0.413437 55.0963C0.200978 54.8012 0.169968 54.3751 0 53.8262C0.576518 53.8583 0.954356 53.794 1.25869 53.9134C4.8809 55.3306 8.08736 57.3105 10.2729 60.656C10.5462 61.0797 10.823 61.5575 11.7233 61.9158C10.3797 58.6967 9.25877 55.7716 7.94839 52.9373C6.18898 49.1267 6.00637 45.2197 6.9435 40.9819C7.36958 41.2633 7.84159 41.4585 8.162 41.8008C8.97625 42.6805 9.81921 43.5636 10.4773 44.5593C11.0699 45.454 11.6854 46.46 11.8497 47.489C12.1816 49.5413 12.1483 51.651 12.3848 53.7228C12.5307 54.9666 12.4319 56.0989 11.7922 57.1922C11.6234 57.4759 11.5109 57.9158 11.6005 58.2132C11.9381 59.318 12.3711 60.3941 12.8075 61.5839C13.0383 61.3255 13.1417 61.2577 13.1658 61.1705C13.2232 60.9741 13.2726 60.7639 13.2646 60.5618C13.1543 57.5954 14.1006 54.8931 15.4098 52.3102C15.7418 51.6636 15.9577 51.1537 15.5029 50.5542C16.5215 50.0225 16.9832 50.2074 17.3266 51.3179C17.6195 52.2666 17.8124 53.245 18.0375 54.2132C18.823 57.5942 18.4199 60.7662 16.3722 63.65C15.8888 64.3321 15.4374 65.0384 15.0171 65.7631C14.8184 66.1111 14.5577 66.5578 14.6197 66.9035C14.9482 68.6319 15.2204 70.3879 16.0886 72.1416C16.2964 71.8235 16.4526 71.6776 16.5043 71.4996ZM27.0206 71.0035C23.9462 72.9214 20.9614 80.2462 21.3508 84.9812C25.3049 81.0122 27.2446 76.5172 27.0206 71.0035ZM24.9178 93.1041C26.3545 91.2035 27.8188 89.4624 29.0373 87.5663C29.5932 86.6993 29.7436 85.537 29.9572 84.4839C30.2661 82.914 30.466 81.3211 30.7117 79.7385C26.7887 82.8772 24.1863 89.722 24.9178 93.1041ZM19.31 73.0982C20.0461 71.9038 20.6973 70.6497 21.453 69.4691C22.9287 67.1665 22.9437 64.6836 22.4935 61.7229C19.2755 66.118 17.6413 70.7209 17.0027 75.7132C17.1463 75.7787 17.2853 75.8442 17.43 75.9096C18.0582 74.9759 18.7139 74.056 19.31 73.0982ZM11.1675 54.6611C11.0997 52.6295 11.0882 50.5921 10.885 48.5755C10.6863 46.6093 9.80199 44.9441 7.99548 43.4844C7.12151 48.0954 8.56741 51.8749 10.5944 55.5304C10.7093 55.527 10.8298 55.5201 10.947 55.5155C11.0251 55.2296 11.1721 54.9436 11.1675 54.6611ZM10.4727 88.2072C13.6688 91.6651 17.26 94.3824 22.1926 94.5868C18.7403 91.5836 15.3972 88.4185 10.4727 88.2072ZM6.51858 76.5355C9.69977 80.2014 12.9074 83.8316 18.1317 85.374C16.463 82.3788 10.6989 78.0067 6.51858 76.5355ZM14.3326 64.2127C16.8902 61.4817 18.2258 57.9089 16.3791 53.4437C14.4578 56.7834 14.1787 60.4412 14.3326 64.2127ZM2.72182 55.999C2.90327 58.0754 8.36643 63.6155 11.0033 64.2931C10.1925 61.2486 5.8743 56.9763 2.72182 55.999ZM12.6375 74.1548C11.3891 71.9636 6.13155 67.387 4.10684 66.8633C6.19012 70.0548 9.89386 72.8995 12.6375 74.1548Z" fill="white"/>
<path fill-rule="evenodd" clip-rule="evenodd" d="M76.206 71.4996C75.4664 68.8088 74.249 66.3178 72.9536 63.8693C72.2507 62.5325 71.448 61.2451 70.6314 59.9726C70.4798 59.7338 70.0595 59.5707 69.7609 59.573C69.6116 59.5753 69.3934 60.0105 69.3325 60.2758C68.377 64.4883 68.7365 68.4505 71.3871 72.0658C72.6217 73.7471 73.6599 75.5766 74.7498 77.3601C74.9186 77.6323 75.007 78.071 74.9151 78.3638C74.2869 80.3346 73.6048 82.2869 72.9398 84.2462C72.8319 84.2347 72.725 84.2255 72.6205 84.2129C72.5137 83.4905 72.3977 82.7727 72.3105 82.0481C71.8637 78.3994 70.5579 75.1 68.3931 72.122C67.5065 70.9013 66.7382 69.6012 65.8688 68.3701C65.6679 68.0887 65.2716 67.9451 64.8375 67.6511C64.6848 68.1335 64.6159 68.377 64.532 68.6147C64.0313 70.0261 64.6882 71.3974 64.6538 72.7893C64.5516 77.2786 66.3822 80.9972 69.2257 84.3151C69.7012 84.8709 70.3053 85.3498 70.6578 85.9746C71.0254 86.6246 71.4962 87.4951 71.3343 88.1107C70.9151 89.6668 70.1675 91.1288 69.5507 92.631C69.4439 92.6218 69.3337 92.6092 69.2246 92.6011C68.7675 86.2881 66.0755 81.1167 61.3773 76.872C60.7812 77.3015 60.7984 77.8781 60.8409 78.4431C60.965 80.1623 61.0063 81.8965 61.2727 83.5962C61.6724 86.1434 62.4327 88.5552 64.2828 90.5305C65.5323 91.8627 66.5774 93.3832 67.7201 94.813C68.2025 95.4148 68.1979 95.9936 67.8752 96.6999C65.661 101.559 56.5193 116.623 53.3565 120.971C53.0235 121.426 52.486 122.013 53.1326 122.441C53.8044 122.893 54.1352 122.092 54.4096 121.65C55.9164 119.201 64.3586 106.55 65.7448 104.03C66.6486 102.386 67.4766 100.664 68.0497 98.8843C68.7583 96.677 70.2961 95.8547 72.3782 95.478C75.8775 94.8463 78.8474 93.1639 81.4027 90.7131C81.9643 90.1722 82.6189 89.7185 83.1437 89.1455C83.9201 88.3002 84.8986 87.5744 85.3396 86.0653C82.4386 86.3513 80.167 87.8029 77.6438 88.314C74.9714 88.8606 73.3659 91.1185 71.0988 92.4243C71.4882 91.0875 72.0808 89.8851 72.5126 88.6264C72.9283 87.4113 73.7288 86.7349 74.9117 86.3834C77.5899 85.5818 80.0326 84.3484 82.0918 82.4156C83.0771 81.4876 84.128 80.6217 85.0605 79.6421C86.0999 78.5453 87.0726 77.3785 88.0017 76.1852C88.352 75.7374 89.0043 75.1976 88.4473 74.5418C87.8627 73.8516 87.2954 74.5074 86.7774 74.7635C86.1217 75.0873 85.5164 75.5168 84.8676 75.8545C82.3088 77.181 79.788 78.5579 77.6082 80.4873C76.8468 81.1557 75.9924 81.7254 74.8566 82.5867C75.2195 81.444 75.5238 80.6814 75.7041 79.8878C76.152 77.924 77.4819 76.802 79.1931 75.9475C80.5 75.2952 81.7805 74.5671 83.0105 73.7781C86.2779 71.6914 88.6597 68.6905 91.0967 65.7574C91.246 65.5816 91.2644 65.2968 91.3448 65.0603C90.6936 64.3448 90.0218 64.6537 89.4326 64.9443C86.6672 66.3212 84.051 67.9245 81.9241 70.2156C80.9629 71.2481 80.0659 72.3402 79.1024 73.367C78.6361 73.855 78.0791 74.2559 77.56 74.6992C77.8976 72.6009 78.473 70.7014 78.9358 68.7732C79.2999 67.2768 80.1015 66.2994 81.5646 65.7355C83.9465 64.8168 85.9712 63.2492 87.6353 61.3898C89.3729 59.4535 90.7809 57.2233 92.2969 55.0963C92.5105 54.8012 92.5415 54.3751 92.7103 53.8262C92.1338 53.8583 91.7571 53.794 91.4516 53.9134C87.8306 55.3306 84.6229 57.3105 82.4386 60.656C82.1641 61.0797 81.8874 61.5575 80.9881 61.9158C82.3318 58.6967 83.4515 55.7716 84.7619 52.9373C86.5213 49.1267 86.7039 45.2197 85.7668 40.9819C85.3419 41.2633 84.8699 41.4585 84.5495 41.8008C83.7352 42.6805 82.8922 43.5636 82.233 44.5593C81.6404 45.454 81.026 46.46 80.8618 47.489C80.5299 49.5413 80.562 51.651 80.3255 53.7228C80.1796 54.9666 80.2795 56.0989 80.9192 57.1922C81.088 57.4759 81.1994 57.9158 81.111 58.2132C80.7734 59.318 80.3392 60.3941 79.904 61.5839C79.672 61.3255 79.5686 61.2577 79.5457 61.1705C79.4882 60.9741 79.4377 60.7639 79.4458 60.5618C79.5572 57.5954 78.6097 54.8931 77.3005 52.3102C76.9697 51.6636 76.7538 51.1537 77.2074 50.5542C76.1899 50.0225 75.7282 50.2074 75.3837 51.3179C75.092 52.2666 74.8991 53.245 74.674 54.2132C73.8884 57.5942 74.2915 60.7662 76.3381 63.65C76.8227 64.3321 77.2729 65.0384 77.6932 65.7631C77.8931 66.1111 78.1538 66.5578 78.0917 66.9035C77.7633 68.6319 77.49 70.3879 76.6229 72.1416C76.4139 71.8235 76.2577 71.6776 76.206 71.4996ZM65.6908 71.0035C68.7652 72.9214 71.7489 80.2462 71.3607 84.9812C67.4066 81.0122 65.4669 76.5172 65.6908 71.0035ZM67.7936 93.1041C66.3569 91.2035 64.8926 89.4624 63.6741 87.5663C63.1183 86.6993 62.9667 85.537 62.7542 84.4839C62.4453 82.914 62.2455 81.3211 61.9986 79.7385C65.9217 82.8772 68.5252 89.722 67.7936 93.1041ZM73.4015 73.0982C72.6642 71.9038 72.0142 70.6497 71.2573 69.4691C69.7827 67.1665 69.7678 64.6836 70.218 61.7229C73.4359 66.118 75.0702 70.7209 75.7076 75.7132C75.5652 75.7787 75.425 75.8442 75.2815 75.9096C74.6533 74.9759 73.9975 74.056 73.4015 73.0982ZM81.544 54.6611C81.6117 52.6295 81.6221 50.5921 81.8265 48.5755C82.0252 46.6093 82.9095 44.9441 84.716 43.4844C85.5888 48.0954 84.1429 51.8749 82.1159 55.5304C82.0022 55.527 81.8816 55.5201 81.7633 55.5155C81.6864 55.2296 81.5382 54.9436 81.544 54.6611ZM82.2388 88.2072C79.0426 91.6651 75.4515 94.3824 70.5189 94.5868C73.9711 91.5836 77.3142 88.4185 82.2388 88.2072ZM86.1929 76.5355C83.0117 80.2014 79.8029 83.8316 74.5798 85.374C76.2485 82.3788 82.0125 78.0067 86.1929 76.5355ZM78.3777 64.2127C75.8213 61.4817 74.4856 57.9089 76.3323 53.4437C78.2537 56.7834 78.5316 60.4412 78.3777 64.2127ZM89.9896 55.999C89.807 58.0754 84.3439 63.6155 81.707 64.2931C82.519 61.2486 86.836 56.9763 89.9896 55.999ZM80.074 74.1548C81.3223 71.9636 86.5799 67.387 88.6035 66.8633C86.5213 70.0548 82.8176 72.8995 80.074 74.1548Z" fill="white"/>
<path fill-rule="evenodd" clip-rule="evenodd" d="M221.096 97.2563C221.096 97.3586 221.19 97.4506 221.296 97.4506H221.991C222.096 97.4506 222.191 97.3586 222.191 97.2563V91.2543H223.907C224.022 91.2543 224.107 91.1623 224.107 91.06V90.4874C224.107 90.3852 224.022 90.2932 223.907 90.2932H219.38C219.264 90.2932 219.18 90.3852 219.18 90.4874V91.06C219.18 91.1623 219.264 91.2543 219.38 91.2543H221.096V97.2563ZM229.222 97.2563C229.222 97.3586 229.306 97.4506 229.422 97.4506H230.106C230.212 97.4506 230.307 97.3586 230.307 97.2563V94.649H231.896L233.296 97.3586C233.317 97.3995 233.381 97.4506 233.465 97.4506H234.286C234.465 97.4506 234.539 97.287 234.465 97.1541L233.023 94.5569C233.939 94.1991 234.581 93.422 234.581 92.4813C234.581 91.2645 233.549 90.2932 232.286 90.2932H229.422C229.306 90.2932 229.222 90.3852 229.222 90.4874V97.2563ZM230.328 93.7696V91.285H232.201C232.886 91.285 233.486 91.8371 233.486 92.5017C233.486 93.2073 232.886 93.7696 232.201 93.7696H230.328ZM240.107 94.7819C240.107 96.3361 241.307 97.5528 242.96 97.5528C244.623 97.5528 245.834 96.3361 245.834 94.7819V90.4874C245.834 90.3852 245.739 90.2932 245.634 90.2932H244.928C244.813 90.2932 244.728 90.3852 244.728 90.4874V94.7308C244.728 95.743 244.044 96.5304 242.96 96.5304C241.886 96.5304 241.212 95.7328 241.212 94.7103V90.4874C241.212 90.3852 241.128 90.2932 241.012 90.2932H240.307C240.202 90.2932 240.107 90.3852 240.107 90.4874V94.7819ZM251.35 96.7451C251.519 96.8984 252.329 97.5528 253.614 97.5528C254.982 97.5528 255.961 96.6837 255.961 95.6203C255.961 94.3729 254.919 93.8105 253.698 93.33C252.824 92.9823 252.361 92.6244 252.361 92.0416C252.361 91.6633 252.666 91.1214 253.551 91.1214C254.161 91.1214 254.898 91.5917 254.972 91.6326C255.119 91.7247 255.256 91.6633 255.34 91.5304C255.424 91.4077 255.519 91.2645 255.603 91.1418C255.709 90.9885 255.624 90.8453 255.54 90.7942C255.435 90.7226 254.645 90.1909 253.593 90.1909C251.919 90.1909 251.287 91.285 251.287 92.0825C251.287 93.2686 252.129 93.8105 253.203 94.2502C254.245 94.6694 254.793 95.058 254.793 95.6715C254.793 96.1929 254.33 96.6224 253.603 96.6224C252.793 96.6224 251.982 95.968 251.919 95.9169C251.803 95.8248 251.656 95.8657 251.561 95.9987C251.466 96.1316 251.382 96.2849 251.287 96.4179C251.182 96.5917 251.256 96.6633 251.35 96.7451ZM262.403 97.2563C262.403 97.3586 262.498 97.4506 262.603 97.4506H263.298C263.404 97.4506 263.498 97.3586 263.498 97.2563V91.2543H265.214C265.33 91.2543 265.414 91.1623 265.414 91.06V90.4874C265.414 90.3852 265.33 90.2932 265.214 90.2932H260.687C260.572 90.2932 260.487 90.3852 260.487 90.4874V91.06C260.487 91.1623 260.572 91.2543 260.687 91.2543H262.403V97.2563ZM110.814 93.8821C110.814 95.9271 112.509 97.5528 114.614 97.5528C115.551 97.5528 116.457 97.2359 117.173 96.561C117.246 96.4894 117.267 96.3565 117.183 96.2849L116.699 95.8248C116.636 95.7737 116.541 95.7635 116.446 95.8351C115.941 96.2134 115.404 96.5099 114.635 96.5099C113.13 96.5099 111.983 95.2931 111.983 93.8617C111.983 92.4302 113.12 91.2032 114.625 91.2032C115.278 91.2032 115.951 91.469 116.446 91.8883C116.541 91.9803 116.636 91.9803 116.709 91.8883L117.173 91.4281C117.257 91.3463 117.257 91.2236 117.162 91.1418C116.446 90.5386 115.678 90.1909 114.614 90.1909C112.509 90.1909 110.814 91.8371 110.814 93.8821ZM122.657 97.2563C122.657 97.3586 122.751 97.4506 122.857 97.4506H123.551C123.667 97.4506 123.751 97.3586 123.751 97.2563V94.3013H127.605V97.2563C127.605 97.3586 127.689 97.4506 127.805 97.4506H128.499C128.605 97.4506 128.699 97.3586 128.699 97.2563V90.4874C128.699 90.3852 128.605 90.2932 128.499 90.2932H127.805C127.689 90.2932 127.605 90.3852 127.605 90.4874V93.3402H123.751V90.4874C123.751 90.3852 123.667 90.2932 123.551 90.2932H122.857C122.751 90.2932 122.657 90.3852 122.657 90.4874V97.2563ZM133.911 97.4506H134.574C134.7 97.4506 134.784 97.3688 134.816 97.2972C135.027 96.8269 135.248 96.3668 135.458 95.8964H138.901L139.553 97.2972C139.596 97.3892 139.669 97.4506 139.796 97.4506H140.459C140.617 97.4506 140.701 97.3177 140.638 97.1847L137.427 90.3034C137.395 90.242 137.301 90.1909 137.248 90.1909H137.143C137.09 90.1909 136.995 90.242 136.964 90.3034L133.732 97.1847C133.668 97.3177 133.753 97.4506 133.911 97.4506ZM135.869 95.0171L137.153 92.2155H137.206L138.501 95.0171H135.869ZM145.669 97.2563C145.669 97.3586 145.753 97.4506 145.869 97.4506H146.553C146.659 97.4506 146.753 97.3586 146.753 97.2563V94.649H148.343L149.743 97.3586C149.764 97.3995 149.827 97.4506 149.912 97.4506H150.733C150.912 97.4506 150.986 97.287 150.912 97.1541L149.47 94.5569C150.385 94.1991 151.028 93.422 151.028 92.4813C151.028 91.2645 149.996 90.2932 148.733 90.2932H145.869C145.753 90.2932 145.669 90.3852 145.669 90.4874V97.2563ZM146.774 93.7696V91.285H148.648C149.333 91.285 149.933 91.8371 149.933 92.5017C149.933 93.2073 149.333 93.7696 148.648 93.7696H146.774ZM156.649 97.2563C156.649 97.3586 156.744 97.4506 156.849 97.4506H157.544C157.649 97.4506 157.744 97.3586 157.744 97.2563V90.4874C157.744 90.3852 157.649 90.2932 157.544 90.2932H156.849C156.744 90.2932 156.649 90.3852 156.649 90.4874V97.2563ZM164.776 97.2563C164.776 97.3586 164.871 97.4506 164.976 97.4506H165.671C165.776 97.4506 165.871 97.3586 165.871 97.2563V91.2543H167.587C167.702 91.2543 167.787 91.1623 167.787 91.06V90.4874C167.787 90.3852 167.702 90.2932 167.587 90.2932H163.06C162.944 90.2932 162.86 90.3852 162.86 90.4874V91.06C162.86 91.1623 162.944 91.2543 163.06 91.2543H164.776V97.2563ZM172.092 97.4506H172.755C172.881 97.4506 172.965 97.3688 172.997 97.2972C173.207 96.8269 173.429 96.3668 173.639 95.8964H177.082L177.734 97.2972C177.776 97.3892 177.85 97.4506 177.976 97.4506H178.64C178.798 97.4506 178.882 97.3177 178.819 97.1847L175.608 90.3034C175.576 90.242 175.481 90.1909 175.429 90.1909H175.324C175.271 90.1909 175.176 90.242 175.145 90.3034L171.913 97.1847C171.849 97.3177 171.934 97.4506 172.092 97.4506ZM174.05 95.0171L175.334 92.2155H175.387L176.682 95.0171H174.05ZM183.851 97.2563C183.851 97.3586 183.935 97.4506 184.051 97.4506H186.525C187.851 97.4506 188.82 96.6224 188.82 95.4772C188.82 94.5365 188.062 94.0355 187.504 93.8105C187.999 93.5345 188.599 92.9721 188.599 92.1848C188.599 91.1112 187.683 90.2932 186.409 90.2932H184.051C183.935 90.2932 183.851 90.3852 183.851 90.4874V97.2563ZM184.925 93.4015V91.2543H186.346C187.02 91.2543 187.43 91.6838 187.43 92.3075C187.43 92.921 187.02 93.4015 186.346 93.4015H184.925ZM184.914 96.5099V94.3218H186.356C187.041 94.3218 187.651 94.7717 187.651 95.3954C187.651 96.0293 187.157 96.5099 186.514 96.5099H184.914ZM194.378 97.2563C194.378 97.3586 194.462 97.4506 194.578 97.4506H198.325C198.441 97.4506 198.525 97.3586 198.525 97.2563V96.694C198.525 96.5917 198.441 96.4997 198.325 96.4997H195.472V90.4874C195.472 90.3852 195.378 90.2932 195.272 90.2932H194.578C194.462 90.2932 194.378 90.3852 194.378 90.4874V97.2563ZM203.61 97.2563C203.61 97.3586 203.695 97.4506 203.81 97.4506H208.021C208.137 97.4506 208.221 97.3586 208.221 97.2563V96.694C208.221 96.5917 208.137 96.4997 208.021 96.4997H204.695V94.3013H207.506C207.611 94.3013 207.706 94.2195 207.706 94.107V93.5345C207.706 93.4322 207.611 93.3402 207.506 93.3402H204.695V91.2543H208.021C208.137 91.2543 208.221 91.1623 208.221 91.06V90.4874C208.221 90.3852 208.137 90.2932 208.021 90.2932H203.81C203.695 90.2932 203.61 90.3852 203.61 90.4874V97.2563Z" fill="white"/>
<path d="M108.71 82.8286H268.569" stroke="white" stroke-width="0.5" stroke-miterlimit="3" stroke-linecap="square"/>
<path fill-rule="evenodd" clip-rule="evenodd" d="M111.873 73.6439C111.825 73.9711 112.015 74.1814 112.322 74.1814H114.451C114.664 74.1814 114.853 73.9945 114.877 73.8309L116.249 64.9732C116.273 64.9732 116.32 64.9732 116.32 64.9732L120.507 74.1581C120.578 74.2983 120.696 74.4151 120.909 74.4151H121.335C121.548 74.4151 121.69 74.2983 121.737 74.1581L125.876 64.9732C125.876 64.9732 125.924 64.9732 125.947 64.9732L127.343 73.8309C127.39 73.9945 127.58 74.1814 127.792 74.1814H129.945C130.253 74.1814 130.442 73.9711 130.371 73.6439L127.58 57.9385C127.556 57.7515 127.414 57.5879 127.154 57.5879H126.775C126.562 57.5879 126.444 57.6814 126.373 57.8216L121.169 68.8528C121.145 68.8528 121.145 68.8528 121.098 68.8528L115.894 57.8216C115.823 57.6814 115.681 57.5879 115.492 57.5879H115.113C114.853 57.5879 114.711 57.7515 114.688 57.9385L111.873 73.6439ZM142.363 66.0249C142.363 70.6991 146.124 74.4151 150.855 74.4151C155.586 74.4151 159.371 70.6991 159.371 66.0249C159.371 61.3507 155.586 57.5879 150.855 57.5879C146.124 57.5879 142.363 61.3507 142.363 66.0249ZM145.438 66.0249C145.438 63.0801 147.874 60.6261 150.855 60.6261C153.835 60.6261 156.295 63.0801 156.295 66.0249C156.295 68.9697 153.835 71.3769 150.855 71.3769C147.874 71.3769 145.438 68.9697 145.438 66.0249ZM172.403 73.7374C172.403 73.9711 172.616 74.1814 172.853 74.1814H175.005C175.265 74.1814 175.455 73.9711 175.455 73.7374V63.6878H175.478L185.366 74.4151H185.934C186.17 74.4151 186.383 74.2282 186.383 73.9945V58.2657C186.383 58.0319 186.17 57.8216 185.934 57.8216H183.758C183.497 57.8216 183.308 58.0319 183.308 58.2657V67.9179H183.285L173.444 57.5879H172.853C172.616 57.5879 172.403 57.7749 172.403 58.0086V73.7374ZM200.622 73.7374C200.622 73.9711 200.812 74.1814 201.048 74.1814H206.654C211.22 74.1814 214.957 70.5122 214.957 65.9781C214.957 61.4909 211.22 57.8216 206.654 57.8216H201.048C200.812 57.8216 200.622 58.0319 200.622 58.2657V73.7374ZM203.674 71.3301V60.6495H206.371C209.446 60.6495 211.693 62.9399 211.693 65.9781C211.693 69.0398 209.446 71.3301 206.371 71.3301H203.674ZM226.263 74.1814H228.321C228.7 74.1814 228.912 73.9477 229.007 73.714L230.166 71.1899H237.239L238.398 73.714C238.564 74.0412 238.729 74.1814 239.084 74.1814H241.142C241.497 74.1814 241.686 73.8776 241.544 73.5738L234.258 57.845C234.188 57.7047 234.093 57.5879 233.856 57.5879H233.62C233.407 57.5879 233.289 57.7047 233.218 57.845L225.861 73.5738C225.719 73.8776 225.908 74.1814 226.263 74.1814ZM231.325 68.5957L233.643 63.4541H233.714L236.08 68.5957H231.325ZM256.8 73.7374C256.8 73.9711 256.99 74.1814 257.25 74.1814H259.426C259.663 74.1814 259.876 73.9711 259.876 73.7374V66.282L265.34 58.4994C265.529 58.1955 265.34 57.8216 264.961 57.8216H262.525C262.336 57.8216 262.217 57.9385 262.146 58.0319L258.362 63.4073L254.577 58.0319C254.506 57.9385 254.388 57.8216 254.198 57.8216H251.786C251.407 57.8216 251.218 58.1955 251.407 58.4994L256.8 66.3053V73.7374Z" fill="white"/>
</svg>
