<svg width="162" height="41" viewBox="0 0 162 41" fill="none" xmlns="http://www.w3.org/2000/svg">
<path fill-rule="evenodd" clip-rule="evenodd" d="M4.61169 17.1819C4.30418 17.1819 4.11494 16.9716 4.16225 16.6444L6.97719 0.938946C7.00085 0.751976 7.14278 0.588379 7.40298 0.588379H7.78146C7.9707 0.588379 8.11263 0.68186 8.18359 0.822088L13.3877 11.8533H13.4586L18.6627 0.822088C18.7337 0.68186 18.852 0.588379 19.0649 0.588379H19.4433C19.7036 0.588379 19.8455 0.751976 19.8691 0.938946L22.6604 16.6444C22.7314 16.9716 22.5421 17.1819 22.2346 17.1819H20.082C19.8691 17.1819 19.6799 16.995 19.6326 16.8314L18.237 7.97367H18.166L14.0264 17.1585C13.9791 17.2988 13.8371 17.4156 13.6242 17.4156H13.1984C12.9855 17.4156 12.8673 17.2988 12.7963 17.1585L8.60938 7.97367H8.53841L7.16643 16.8314C7.14278 16.995 6.95354 17.1819 6.74064 17.1819H4.61169ZM43.1444 17.4156C38.4134 17.4156 34.6523 13.6996 34.6523 9.02538C34.6523 4.35114 38.4134 0.588379 43.1444 0.588379C47.8754 0.588379 51.6602 4.35114 51.6602 9.02538C51.6602 13.6996 47.8754 17.4156 43.1444 17.4156ZM43.1444 3.62663C40.1638 3.62663 37.7274 6.08061 37.7274 9.02538C37.7274 11.9701 40.1638 14.3774 43.1444 14.3774C46.1249 14.3774 48.585 11.9701 48.585 9.02538C48.585 6.08061 46.1249 3.62663 43.1444 3.62663ZM65.1422 17.1819C64.9057 17.1819 64.6928 16.9716 64.6928 16.7379V1.00906C64.6928 0.775349 64.9057 0.588379 65.1422 0.588379H65.7336L75.5741 10.9184H75.5977V1.26614C75.5977 1.03243 75.787 0.822088 76.0472 0.822088H78.2234C78.46 0.822088 78.6729 1.03243 78.6729 1.26614V16.9949C78.6729 17.2287 78.46 17.4156 78.2234 17.4156H77.6557L67.7679 6.68826H67.7443V16.7379C67.7443 16.9716 67.5551 17.1819 67.2948 17.1819H65.1422ZM93.3377 17.1819C93.1012 17.1819 92.9119 16.9716 92.9119 16.7379V1.26614C92.9119 1.03243 93.1012 0.822088 93.3377 0.822088H98.9439C103.509 0.822088 107.247 4.49137 107.247 8.97863C107.247 13.5126 103.509 17.1819 98.9439 17.1819H93.3377ZM95.9634 3.65001V14.3306H98.6601C101.735 14.3306 103.982 12.0403 103.982 8.97863C103.982 5.94038 101.735 3.65001 98.6601 3.65001H95.9634ZM120.611 17.1819H118.553C118.198 17.1819 118.009 16.8781 118.151 16.5743L125.507 0.845459C125.578 0.705233 125.696 0.588379 125.909 0.588379H126.146C126.382 0.588379 126.477 0.705233 126.548 0.845459L133.834 16.5743C133.976 16.8781 133.786 17.1819 133.432 17.1819H131.374C131.019 17.1819 130.853 17.0417 130.688 16.7145L129.529 14.1904H122.456L121.297 16.7145C121.202 16.9482 120.989 17.1819 120.611 17.1819ZM126.004 6.45454H125.933L123.615 11.5962H128.369L126.004 6.45454ZM149.539 17.1819C149.279 17.1819 149.09 16.9716 149.09 16.7379V9.30584L143.697 1.49986C143.507 1.19603 143.697 0.822088 144.075 0.822088H146.488C146.677 0.822088 146.795 0.938948 146.866 1.03243L150.651 6.4078L154.436 1.03243C154.507 0.938948 154.625 0.822088 154.814 0.822088H157.251C157.629 0.822088 157.819 1.19603 157.629 1.49986L152.165 9.28246V16.7379C152.165 16.9716 151.952 17.1819 151.716 17.1819H149.539ZM0.75 25.5791H1H160.859H161.109V26.0791H160.859H1H0.75V25.5791ZM113.385 40.2568C113.385 40.3591 113.48 40.4511 113.585 40.4511H114.28C114.385 40.4511 114.48 40.3591 114.48 40.2568V34.2548H116.196C116.312 34.2548 116.396 34.1628 116.396 34.0605V33.4879C116.396 33.3857 116.312 33.2937 116.196 33.2937H111.669C111.553 33.2937 111.469 33.3857 111.469 33.4879V34.0605C111.469 34.1628 111.553 34.2548 111.669 34.2548H113.385V40.2568ZM121.512 40.2568C121.512 40.3591 121.596 40.4511 121.712 40.4511H122.396C122.501 40.4511 122.596 40.3591 122.596 40.2568V37.6495H124.186L125.586 40.3591C125.607 40.4 125.67 40.4511 125.754 40.4511H126.576C126.754 40.4511 126.828 40.2875 126.754 40.1546L125.312 37.5574C126.228 37.1996 126.87 36.4225 126.87 35.4818C126.87 34.265 125.839 33.2937 124.575 33.2937H121.712C121.596 33.2937 121.512 33.3857 121.512 33.4879V40.2568ZM122.617 36.7701V34.2855H124.491C125.175 34.2855 125.775 34.8376 125.775 35.5022C125.775 36.2077 125.175 36.7701 124.491 36.7701H122.617ZM132.396 37.7824C132.396 39.3366 133.597 40.5533 135.249 40.5533C136.913 40.5533 138.123 39.3366 138.123 37.7824V33.4879C138.123 33.3857 138.029 33.2937 137.923 33.2937H137.218C137.102 33.2937 137.018 33.3857 137.018 33.4879V37.7313C137.018 38.7435 136.334 39.5308 135.249 39.5308C134.176 39.5308 133.502 38.7333 133.502 37.7108V33.4879C133.502 33.3857 133.418 33.2937 133.302 33.2937H132.596C132.491 33.2937 132.396 33.3857 132.396 33.4879V37.7824ZM143.64 39.7456C143.808 39.8989 144.619 40.5533 145.903 40.5533C147.272 40.5533 148.251 39.6842 148.251 38.6208C148.251 37.3734 147.209 36.811 145.987 36.3305C145.114 35.9828 144.65 35.6249 144.65 35.0421C144.65 34.6638 144.956 34.1219 145.84 34.1219C146.401 34.1219 147.067 34.5181 147.23 34.6148L147.232 34.6162C147.246 34.6241 147.256 34.6299 147.261 34.6331C147.409 34.7251 147.546 34.6638 147.63 34.5309C147.671 34.471 147.715 34.4062 147.758 34.3413L147.761 34.3377C147.806 34.2709 147.851 34.204 147.893 34.1423C147.998 33.989 147.914 33.8458 147.83 33.7947C147.725 33.7231 146.935 33.1914 145.882 33.1914C144.208 33.1914 143.577 34.2855 143.577 35.083C143.577 36.2691 144.419 36.811 145.493 37.2507C146.535 37.6699 147.082 38.0585 147.082 38.672C147.082 39.1934 146.619 39.6229 145.893 39.6229C145.082 39.6229 144.271 38.9685 144.208 38.9173C144.093 38.8253 143.945 38.8662 143.85 38.9991C143.803 39.0656 143.758 39.1371 143.714 39.2086C143.669 39.2802 143.624 39.3519 143.577 39.4184C143.471 39.5922 143.545 39.6638 143.64 39.7456ZM154.693 40.2568C154.693 40.3591 154.788 40.4511 154.893 40.4511H155.588C155.693 40.4511 155.788 40.3591 155.788 40.2568V34.2548H157.504C157.62 34.2548 157.704 34.1628 157.704 34.0605V33.4879C157.704 33.3857 157.62 33.2937 157.504 33.2937H152.977C152.861 33.2937 152.777 33.3857 152.777 33.4879V34.0605C152.777 34.1628 152.861 34.2548 152.977 34.2548H154.693V40.2568ZM3.10352 36.8826C3.10352 38.9276 4.79845 40.5533 6.90398 40.5533C7.84093 40.5533 8.74631 40.2364 9.46218 39.5615C9.53587 39.4899 9.55693 39.357 9.47271 39.2854L8.98844 38.8253C8.92528 38.7742 8.83053 38.764 8.73578 38.8355C8.23045 39.2139 7.69354 39.5104 6.92503 39.5104C5.41959 39.5104 4.27208 38.2936 4.27208 36.8621C4.27208 35.4307 5.40906 34.2037 6.91451 34.2037C7.56721 34.2037 8.24098 34.4695 8.73578 34.8887C8.83053 34.9808 8.92528 34.9808 8.99897 34.8887L9.46218 34.4286C9.5464 34.3468 9.5464 34.2241 9.45165 34.1423C8.73578 33.5391 7.96726 33.1914 6.90398 33.1914C4.79845 33.1914 3.10352 34.8376 3.10352 36.8826ZM14.9462 40.2568C14.9462 40.3591 15.0409 40.4511 15.1462 40.4511H15.841C15.9568 40.4511 16.041 40.3591 16.041 40.2568V37.3018H19.8941V40.2568C19.8941 40.3591 19.9784 40.4511 20.0942 40.4511H20.789C20.8943 40.4511 20.989 40.3591 20.989 40.2568V33.4879C20.989 33.3857 20.8943 33.2937 20.789 33.2937H20.0942C19.9784 33.2937 19.8941 33.3857 19.8941 33.4879V36.3407H16.041V33.4879C16.041 33.3857 15.9568 33.2937 15.841 33.2937H15.1462C15.0409 33.2937 14.9462 33.3857 14.9462 33.4879V40.2568ZM26.2002 40.4511H26.8634C26.9897 40.4511 27.074 40.3693 27.1055 40.2977C27.2108 40.0625 27.3187 39.8299 27.4266 39.5973C27.5345 39.3647 27.6425 39.1321 27.7477 38.8969H31.1902L31.843 40.2977C31.8851 40.3897 31.9588 40.4511 32.0851 40.4511H32.7483C32.9062 40.4511 32.9905 40.3182 32.9273 40.1852L29.7164 33.3039C29.6848 33.2425 29.5901 33.1914 29.5374 33.1914H29.4321C29.3795 33.1914 29.2848 33.2425 29.2532 33.3039L26.0212 40.1852C25.958 40.3182 26.0423 40.4511 26.2002 40.4511ZM28.1583 38.0176L29.4427 35.2159H29.4953L30.7902 38.0176H28.1583ZM37.9586 40.2568C37.9586 40.3591 38.0428 40.4511 38.1586 40.4511H38.8429C38.9482 40.4511 39.043 40.3591 39.043 40.2568V37.6495H40.6326L42.0328 40.3591C42.0538 40.4 42.117 40.4511 42.2012 40.4511H43.0224C43.2014 40.4511 43.2751 40.2875 43.2014 40.1546L41.7591 37.5574C42.675 37.1996 43.3172 36.4225 43.3172 35.4818C43.3172 34.265 42.2855 33.2937 41.0222 33.2937H38.1586C38.0428 33.2937 37.9586 33.3857 37.9586 33.4879V40.2568ZM39.064 36.7701V34.2855H40.9379C41.6222 34.2855 42.2223 34.8376 42.2223 35.5022C42.2223 36.2077 41.6222 36.7701 40.9379 36.7701H39.064ZM48.9389 40.2568C48.9389 40.3591 49.0336 40.4511 49.1389 40.4511H49.8337C49.939 40.4511 50.0338 40.3591 50.0338 40.2568V33.4879C50.0338 33.3857 49.939 33.2937 49.8337 33.2937H49.1389C49.0336 33.2937 48.9389 33.3857 48.9389 33.4879V40.2568ZM57.0653 40.2568C57.0653 40.3591 57.1601 40.4511 57.2654 40.4511H57.9602C58.0654 40.4511 58.1602 40.3591 58.1602 40.2568V34.2548H59.8762C59.992 34.2548 60.0762 34.1628 60.0762 34.0605V33.4879C60.0762 33.3857 59.992 33.2937 59.8762 33.2937H55.3493C55.2335 33.2937 55.1493 33.3857 55.1493 33.4879V34.0605C55.1493 34.1628 55.2335 34.2548 55.3493 34.2548H57.0653V40.2568ZM64.3811 40.4511H65.0444C65.1707 40.4511 65.2549 40.3693 65.2865 40.2977C65.3918 40.0625 65.4997 39.8299 65.6076 39.5973C65.7155 39.3647 65.8234 39.1321 65.9287 38.8969H69.3712L70.0239 40.2977C70.066 40.3897 70.1397 40.4511 70.2661 40.4511H70.9293C71.0872 40.4511 71.1714 40.3182 71.1082 40.1852L67.8973 33.3039C67.8658 33.2425 67.771 33.1914 67.7184 33.1914H67.6131C67.5605 33.1914 67.4657 33.2425 67.4341 33.3039L64.2021 40.1852C64.139 40.3182 64.2232 40.4511 64.3811 40.4511ZM66.3392 38.0176L67.6236 35.2159H67.6763L68.9711 38.0176H66.3392ZM76.1404 40.2568C76.1404 40.3591 76.2247 40.4511 76.3405 40.4511H78.8145C80.1409 40.4511 81.1095 39.6229 81.1095 38.4777C81.1095 37.537 80.3515 37.036 79.7935 36.811C80.2883 36.5349 80.8884 35.9726 80.8884 35.1853C80.8884 34.1116 79.9725 33.2937 78.6986 33.2937H76.3405C76.2247 33.2937 76.1404 33.3857 76.1404 33.4879V40.2568ZM77.2142 36.402V34.2548H78.6355C79.3092 34.2548 79.7198 34.6842 79.7198 35.308C79.7198 35.9214 79.3092 36.402 78.6355 36.402H77.2142ZM77.2037 39.5104V37.3223H78.646C79.3303 37.3223 79.9409 37.7722 79.9409 38.3959C79.9409 39.0298 79.4461 39.5104 78.8039 39.5104H77.2037ZM86.6671 40.2568C86.6671 40.3591 86.7514 40.4511 86.8672 40.4511H90.615C90.7308 40.4511 90.815 40.3591 90.815 40.2568V39.6944C90.815 39.5922 90.7308 39.5002 90.615 39.5002H87.762V33.4879C87.762 33.3857 87.6673 33.2937 87.562 33.2937H86.8672C86.7514 33.2937 86.6671 33.3857 86.6671 33.4879V40.2568ZM95.8998 40.2568C95.8998 40.3591 95.9841 40.4511 96.0999 40.4511H100.311C100.427 40.4511 100.511 40.3591 100.511 40.2568V39.6944C100.511 39.5922 100.427 39.5002 100.311 39.5002H96.9842V37.3018H99.7951C99.9003 37.3018 99.9951 37.22 99.9951 37.1075V36.5349C99.9951 36.4327 99.9003 36.3407 99.7951 36.3407H96.9842V34.2548H100.311C100.427 34.2548 100.511 34.1628 100.511 34.0605V33.4879C100.511 33.3857 100.427 33.2937 100.311 33.2937H96.0999C95.9841 33.2937 95.8998 33.3857 95.8998 33.4879V40.2568Z" fill="white"/>
</svg>
