<svg width="236" height="75" viewBox="0 0 236 75" fill="none" xmlns="http://www.w3.org/2000/svg">
<path fill-rule="evenodd" clip-rule="evenodd" d="M30.8411 21.9437C29.1822 23.6468 27.5771 25.4024 26.3167 27.4388C26.2631 27.5231 26.1786 27.5868 26.0618 27.6749C25.9923 27.7272 25.9114 27.7882 25.8188 27.8673C25.5554 26.3675 25.6958 24.9857 25.8344 23.6217L25.8481 23.4872C25.8578 23.3912 25.8674 23.2952 25.8769 23.1993C25.9094 22.9024 26.2245 22.6007 26.4718 22.3638L26.4805 22.3555C27.0022 21.8611 27.5435 21.3884 28.1073 20.9444C30.4903 19.0649 31.5904 16.5509 31.7613 13.5783C31.7733 13.3684 31.7871 13.1586 31.8009 12.9488C31.8432 12.3062 31.8854 11.6643 31.8775 11.0223C31.8628 10.0237 31.5274 9.76109 30.5603 9.95156C30.7893 10.5559 30.4882 10.9235 30.0589 11.3752C28.3558 13.1854 26.9224 15.1805 26.2956 17.6497C26.2536 17.8184 26.1619 17.9788 26.0667 18.1265C26.0416 18.1679 25.992 18.1957 25.8959 18.2495L25.8958 18.2495C25.8389 18.2814 25.7657 18.3224 25.6717 18.3807C25.6521 18.0799 25.6305 17.7863 25.6093 17.4978C25.5539 16.7461 25.5012 16.0296 25.4931 15.3135C25.4924 15.0467 25.6906 14.712 25.8986 14.5194C26.6899 13.7736 27.0456 12.8654 27.227 11.8059C27.3572 11.0554 27.5294 10.3113 27.7014 9.56761L27.7014 9.5673C27.9336 8.56368 28.1655 7.56079 28.2942 6.54404C28.4077 5.6575 28.1451 4.67992 27.8734 3.79967C27.5948 2.89688 27.1648 2.03404 26.7402 1.18199L26.7401 1.18187L26.6339 0.968475C26.5118 0.725239 26.3161 0.521017 26.115 0.311077L26.115 0.311031C26.0185 0.210318 25.9207 0.108286 25.8293 0C24.0324 3.26257 23.2376 6.52303 23.7642 10.086C24.0344 11.9096 24.2205 13.7468 24.4168 15.6849L24.4169 15.6851L24.4169 15.6852C24.5059 16.564 24.597 17.4635 24.699 18.3919C24.0725 17.9009 23.9427 17.4575 23.8252 17.056L23.8097 17.0033C22.8202 13.7204 20.6585 11.3143 18.0198 9.2709C17.8744 9.15854 17.6843 9.10294 17.4394 9.03133L17.4393 9.03131C17.3103 8.99359 17.1661 8.95142 17.0051 8.89415C17.0073 9.06008 17 9.21059 16.9933 9.34851C16.9801 9.62095 16.9692 9.84431 17.038 10.0405C17.2237 10.5761 17.4019 11.1154 17.5803 11.655L17.5803 11.6552L17.5804 11.6553C18.1071 13.2489 18.6344 14.8442 19.3531 16.3493C20.2733 18.2834 21.5604 20.0635 23.2999 21.3968C24.3678 22.2154 24.7908 23.214 24.7291 24.5333C24.704 25.0324 24.6875 25.5318 24.6709 26.034C24.631 27.2423 24.5905 28.4673 24.4287 29.7455C24.3286 29.5922 24.2245 29.4415 24.1205 29.2911C23.8914 28.9595 23.6631 28.6292 23.4806 28.2756C23.1999 27.7201 22.9379 27.1546 22.6758 26.589L22.6757 26.5888L22.6757 26.5887C22.4289 26.0562 22.1821 25.5236 21.9196 24.999C20.7229 22.5978 18.9568 20.6447 17.0135 18.8408C16.599 18.4599 16.1207 18.0432 15.4106 18.4739C15.4138 18.5434 15.4103 18.6153 15.4068 18.687C15.3995 18.8369 15.3923 18.9856 15.4463 19.1083C15.5292 19.3004 15.6119 19.4926 15.6946 19.6849L15.6946 19.6849C16.905 22.4999 18.1175 25.3198 20.1627 27.6684C20.9848 28.6159 21.8629 29.5242 22.781 30.3785C23.9833 31.4961 24.8069 32.7412 24.6997 34.4667C24.6713 34.9222 24.6899 35.3799 24.7123 35.9296L24.7123 35.9299L24.7123 35.9303L24.7123 35.9306L24.7124 35.9311C24.7242 36.2218 24.737 36.5383 24.7445 36.8938C24.4977 36.5594 24.2693 36.2605 24.0572 35.9828L24.0569 35.9825C23.6451 35.4434 23.2942 34.9841 22.9869 34.4989C21.6598 32.3834 19.9176 30.6397 18.1319 28.9289C17.9218 28.727 17.7242 28.5109 17.5265 28.2948C17.2984 28.0454 17.0703 27.796 16.8231 27.5683C16.7452 27.4964 16.67 27.4091 16.5935 27.3202C16.3115 26.9928 16.0124 26.6455 15.5024 26.9815C14.9748 27.3278 15.1942 27.8177 15.3816 28.2361C15.4136 28.3075 15.4446 28.3768 15.4708 28.4429C15.9477 29.6495 16.4666 30.8456 17.0563 32.0003C17.3997 32.6682 17.7956 33.3091 18.1913 33.9496L18.1914 33.9497L18.1915 33.9499L18.1915 33.95L18.1916 33.9501C18.4074 34.2993 18.623 34.6484 18.83 35.0017C20.0576 37.0913 21.7705 38.6977 23.781 40.0065C24.6696 40.5822 25.1654 41.3329 25.2137 42.4337C25.2347 42.9084 25.2812 43.382 25.3281 43.8594C25.3938 44.5285 25.4602 45.2049 25.4581 45.9021C24.8903 45.3076 24.4264 44.6293 23.9649 43.9545C23.1665 42.7868 22.3751 41.6296 21.0646 40.9351C20.2353 40.497 19.4844 39.9305 18.7173 39.352C17.6773 38.5674 16.6075 37.7605 15.2727 37.2209C15.271 38.3068 15.6784 39.0594 16.0642 39.7722L16.0642 39.7723C16.1578 39.9452 16.2501 40.1157 16.335 40.288C16.5054 40.6357 16.7216 40.9612 16.9378 41.2867L16.9391 41.2887L16.9396 41.2895L16.9857 41.3589C17.0041 41.3866 17.0224 41.4143 17.0407 41.4421C17.0548 41.4634 17.0688 41.4847 17.0828 41.506C16.9974 41.561 16.9256 41.6179 16.8743 41.6893C16.6309 42.0345 16.4002 42.3886 16.1694 42.7428C15.8983 43.1588 15.6272 43.575 15.3351 43.9771C14.0158 45.7929 13.2189 47.8048 12.9465 50.0296C12.9084 50.3497 12.8605 50.6676 12.8124 50.9859L12.8124 50.9864L12.8123 50.9871C12.794 51.1078 12.7758 51.2286 12.7581 51.3496C12.7375 51.3521 12.7167 51.3543 12.6958 51.3565L12.6397 51.3622C12.6143 51.3647 12.5888 51.3672 12.5634 51.3699C12.4639 51.0766 12.3637 50.7836 12.2635 50.4905L12.2625 50.4878L12.2616 50.4851L12.2592 50.4781L12.259 50.4776L12.259 50.4775L12.259 50.4774L12.259 50.4774C11.9525 49.5813 11.6461 48.6853 11.359 47.7831C11.303 47.6045 11.3569 47.337 11.4598 47.1711C11.6025 46.9373 11.7438 46.7023 11.8851 46.4672C12.4013 45.6082 12.9185 44.7477 13.5095 43.9428C15.1257 41.7384 15.3456 39.3224 14.763 36.7538C14.7252 36.5921 14.5928 36.3267 14.5018 36.3253C14.3197 36.3239 14.0627 36.4233 13.9703 36.569C13.4724 37.3449 12.9829 38.1299 12.5543 38.945C11.7651 40.438 11.0229 41.9569 10.5712 43.5976C10.5514 43.6657 10.5066 43.726 10.4446 43.8095C10.4078 43.859 10.3649 43.9167 10.3177 43.989C9.8377 43.0196 9.65647 42.0489 9.47756 41.0907L9.47755 41.0907L9.43801 40.8796L9.42203 40.7951C9.385 40.5887 9.53669 40.3231 9.65677 40.113L9.66433 40.0997C9.92062 39.6579 10.1958 39.2272 10.4906 38.8112C11.7392 37.0528 11.985 35.1187 11.506 33.0571C11.4725 32.9129 11.4401 32.7683 11.4078 32.6237C11.3077 32.1763 11.2075 31.7288 11.0726 31.2917C10.8632 30.6145 10.5817 30.5018 9.96054 30.826C10.2378 31.1916 10.1062 31.5025 9.90382 31.8967C9.10551 33.4717 8.52848 35.1194 8.59571 36.9282C8.60061 37.0514 8.5705 37.1796 8.53548 37.2993C8.52631 37.3326 8.49832 37.3611 8.44437 37.4162L8.44426 37.4163C8.41176 37.4495 8.36986 37.4923 8.317 37.5514C8.24518 37.3556 8.17352 37.1649 8.10312 36.9775L8.10287 36.9769C7.91248 36.4701 7.73127 35.9878 7.58101 35.4961C7.52639 35.3148 7.59502 35.0466 7.69796 34.8736C8.08801 34.2069 8.14824 33.5165 8.0593 32.7581C7.99804 32.2216 7.96645 31.6809 7.93489 31.1405V31.1404C7.89213 30.4084 7.8494 29.6769 7.73297 28.957C7.63284 28.3296 7.25749 27.7161 6.89615 27.1706C6.52741 26.6127 6.06347 26.1127 5.60539 25.619L5.4844 25.4886C5.35245 25.3476 5.17834 25.2476 4.99917 25.1446L4.99911 25.1446L4.99906 25.1445L4.999 25.1445L4.99894 25.1445C4.9129 25.095 4.82568 25.0449 4.74141 24.9893C4.16999 27.5733 4.28133 29.9556 5.35415 32.2791C5.90332 33.4669 6.3979 34.6809 6.91952 35.9613L6.91973 35.9618L6.92065 35.9641L6.92096 35.9649C7.15782 36.5462 7.40027 37.1413 7.65594 37.7538C7.13034 37.5446 6.95325 37.2687 6.79286 37.0188L6.7715 36.9856C5.43888 34.9457 3.48373 33.7385 1.27506 32.8743C1.15361 32.8267 1.01297 32.827 0.831734 32.8274C0.736046 32.8276 0.62904 32.8279 0.507568 32.8211C0.542671 32.9345 0.568054 33.0393 0.591309 33.1353L0.59132 33.1353C0.636719 33.3227 0.674004 33.4766 0.759663 33.5956C0.994179 33.9244 1.22436 34.2572 1.45461 34.5901L1.45487 34.5905L1.45513 34.5909L1.45539 34.5913L1.45566 34.5916L1.45574 34.5918C2.13337 35.5716 2.81159 36.5522 3.60207 37.4331C4.61747 38.5668 5.85134 39.5227 7.30371 40.0829C8.19585 40.4268 8.68464 41.0227 8.90663 41.9351C8.98894 42.2772 9.07694 42.6178 9.16544 42.9604L9.16545 42.9604C9.38113 43.7951 9.59978 44.6414 9.74625 45.5485C9.64718 45.4639 9.54578 45.3819 9.44452 45.2999L9.44448 45.2999L9.44445 45.2999C9.2222 45.12 9.00061 44.9407 8.80579 44.7362C8.50146 44.4123 8.20838 44.0778 7.9152 43.7431C7.6417 43.4308 7.36811 43.1185 7.08522 42.8147C5.78762 41.4176 4.1931 40.4401 2.50684 39.6004C2.14761 39.4233 1.73795 39.2349 1.34019 39.6712C1.3563 39.7179 1.36837 39.7677 1.38039 39.8174C1.40548 39.921 1.43038 40.0238 1.49145 40.0962C1.5857 40.2097 1.67981 40.3233 1.77394 40.4369C3.16383 42.1146 4.55615 43.7952 6.42207 44.9869C7.17205 45.468 7.95286 45.912 8.75047 46.3097C9.79387 46.8307 10.6041 47.5149 10.8772 48.7124C10.9488 49.0277 11.0529 49.335 11.1778 49.7037L11.1778 49.7039L11.1779 49.704C11.2446 49.901 11.3172 50.1154 11.394 50.358C11.1585 50.1792 10.9427 50.021 10.7422 49.8741L10.74 49.8724L10.7399 49.8723L10.7398 49.8723C10.3525 49.5883 10.0222 49.3462 9.71614 49.0779C8.38773 47.9015 6.85063 47.0618 5.29042 46.253C5.10613 46.1571 4.92745 46.0491 4.74881 45.941C4.54393 45.8171 4.3391 45.6932 4.12587 45.5878C4.05823 45.5544 3.98927 45.5099 3.91917 45.4646C3.66125 45.2982 3.38779 45.1217 3.10698 45.4526C2.81689 45.7941 3.06474 46.084 3.2763 46.3315C3.31244 46.3738 3.34752 46.4148 3.37868 46.4547C3.9452 47.1823 4.53904 47.8938 5.17278 48.5625C5.53946 48.9482 5.93678 49.3049 6.33404 49.6616C6.55207 49.8574 6.77008 50.0532 6.98298 50.2537C8.23857 51.4322 9.72805 52.1843 11.3611 52.6731C12.0824 52.8874 12.5705 53.2999 12.824 54.0407C12.9336 54.3613 13.0605 54.6758 13.1884 54.9928C13.3667 55.4349 13.547 55.8818 13.6853 56.3565C13.1795 56.0651 12.7277 55.6958 12.2781 55.3284C11.4997 54.6922 10.7281 54.0616 9.69514 53.8503C9.04184 53.7179 8.4162 53.4822 7.77709 53.2414L7.77703 53.2414C6.91106 52.9151 6.02036 52.5795 5.00261 52.4791C5.21891 53.2193 5.64679 53.6504 6.05229 54.059C6.15092 54.1584 6.24822 54.2564 6.34083 54.3573C6.52585 54.5593 6.73755 54.737 6.94926 54.9147L6.94936 54.9147L6.9496 54.9149C7.10398 55.0445 7.25838 55.1741 7.40244 55.3131C8.96125 56.8075 10.7722 57.8334 12.9059 58.2186C14.1755 58.4482 15.1131 58.9496 15.5452 60.2956C15.8946 61.381 16.3995 62.4307 16.9506 63.4335C17.4762 64.3897 19.6689 67.7387 21.4712 70.4917L21.4718 70.4925C22.5653 72.1627 23.515 73.6133 23.8616 74.1771C23.8825 74.2105 23.9038 74.2473 23.926 74.2855L23.9268 74.287L23.9269 74.2872C24.0835 74.5573 24.2823 74.9002 24.641 74.6595C24.9999 74.4218 24.7606 74.104 24.5616 73.8397L24.5614 73.8394L24.5457 73.8186C24.5316 73.7999 24.5178 73.7813 24.5045 73.7632C22.5752 71.112 17.0018 61.9265 15.651 58.9636C15.4549 58.533 15.4521 58.18 15.7462 57.8131C15.9718 57.5308 16.1911 57.2428 16.4105 56.9547L16.4106 56.9546L16.4107 56.9544L16.4108 56.9543L16.4109 56.9541C16.8689 56.3526 17.327 55.7509 17.8421 55.2018C18.9695 53.9973 19.4331 52.5268 19.6768 50.9735C19.7962 50.2149 19.8418 49.445 19.8872 48.6756C19.9039 48.394 19.9205 48.1124 19.9408 47.8314C19.966 47.4869 19.9772 47.1354 19.6131 46.8735C16.749 49.4617 15.1075 52.615 14.8288 56.4644L14.792 56.4673L14.7534 56.4709L14.6774 56.4782L14.63 56.4826C14.5219 56.2194 14.4072 55.9583 14.2926 55.6973L14.2925 55.6972L14.2925 55.6971L14.2925 55.697L14.2923 55.6965C14.0079 55.0492 13.7238 54.4023 13.5417 53.7263C13.443 53.351 13.7301 52.8202 13.9542 52.4238C14.0963 52.1728 14.3045 51.9603 14.5129 51.7476C14.6207 51.6376 14.7286 51.5275 14.8274 51.4119C16.562 49.3888 17.6775 47.1213 17.6159 44.384C17.6081 44.0668 17.6591 43.7514 17.7102 43.4357C17.7505 43.1866 17.7908 42.9373 17.8022 42.6869C19.2658 45.0031 21.1791 46.8618 23.6661 48.1073C25.2894 48.921 26.3566 49.9707 26.4056 51.9588C26.4469 53.5631 26.7123 55.1807 27.0582 56.7542C27.3883 58.2519 29.0167 63.6344 30.357 68.0644L30.3572 68.0649L30.3573 68.0653C31.1727 70.7604 31.8814 73.1028 32.1261 74.0033C32.1411 74.0572 32.1554 74.1158 32.1703 74.1768C32.2746 74.6038 32.4072 75.1466 32.9874 74.9634C33.1961 74.8991 33.3039 74.7898 33.3488 74.656C33.458 74.5652 33.5439 74.4168 33.6197 74.2857C33.6419 74.2474 33.6632 74.2105 33.684 74.1771C34.0301 73.6145 34.9766 72.1689 36.0671 70.5032C37.871 67.748 40.0689 64.391 40.5956 63.4335C41.1468 62.4307 41.6516 61.381 42.0011 60.2956C42.4332 58.9496 43.3708 58.4482 44.6404 58.2186C46.7741 57.8334 48.585 56.8075 50.1431 55.3131C50.287 55.1746 50.4408 55.0455 50.5946 54.9164C50.8069 54.7381 51.0191 54.5599 51.2048 54.3573C51.2976 54.2562 51.3951 54.158 51.494 54.0584C51.8995 53.65 52.3275 53.2189 52.5437 52.4791C51.526 52.5795 50.6353 52.915 49.7694 53.2413L49.7693 53.2414C49.1301 53.4822 48.5045 53.7179 47.8512 53.8503C46.8184 54.0615 46.047 54.6919 45.2685 55.3279C44.8187 55.6955 44.3666 56.0649 43.8603 56.3565C43.9989 55.8806 44.1798 55.4325 44.3587 54.9893L44.3588 54.9892L44.3588 54.9892L44.3588 54.9891C44.4863 54.6733 44.6128 54.36 44.7223 54.0407C44.9758 53.2999 45.4639 52.8874 46.1852 52.6731C47.8182 52.1843 49.3077 51.4322 50.5633 50.2537C50.7763 50.0531 50.9943 49.8573 51.2123 49.6614L51.2125 49.6613L51.2126 49.6612L51.2127 49.661L51.2129 49.6609C51.6097 49.3044 52.0066 48.9479 52.3735 48.5625C53.0073 47.8938 53.6004 47.1823 54.1669 46.4547C54.1981 46.4149 54.2331 46.3738 54.2693 46.3315C54.4809 46.084 54.7287 45.7941 54.4386 45.4526C54.1582 45.1215 53.8842 45.2984 53.6264 45.465C53.5565 45.5101 53.4878 45.5545 53.4204 45.5878C53.2064 45.6935 53.0012 45.8176 52.796 45.9418L52.7958 45.9419C52.6177 46.0496 52.4397 46.1574 52.2559 46.253C50.6957 47.0618 49.1586 47.9015 47.8294 49.0779C47.5224 49.3474 47.1906 49.5906 46.8008 49.8763L46.8007 49.8763C46.6011 50.0227 46.3862 50.1801 46.1516 50.358C46.2272 50.1199 46.2987 49.9088 46.3643 49.7149L46.3648 49.7135L46.3649 49.7131C46.4912 49.3403 46.5961 49.0304 46.6684 48.7124C46.9415 47.5149 47.7524 46.8307 48.7958 46.3097C49.5927 45.912 50.3735 45.468 51.1235 44.9869C52.9894 43.7952 54.3817 42.1146 55.7716 40.4369L55.9534 40.2176L56.0541 40.0962C56.1161 40.0233 56.1411 39.9194 56.1662 39.815C56.178 39.7662 56.1898 39.7172 56.2054 39.6712C55.8083 39.2349 55.3987 39.4233 55.0395 39.6004C53.3532 40.4401 51.758 41.4176 50.4611 42.8147C50.1771 43.1197 49.9023 43.4333 49.6276 43.7468L49.6275 43.7469L49.6272 43.7473C49.3351 44.0805 49.0432 44.4137 48.7405 44.7362C48.5452 44.9407 48.3237 45.12 48.1016 45.2999L48.1015 45.3001C48.0003 45.382 47.899 45.464 47.8 45.5485C47.9455 44.6444 48.1634 43.8008 48.3783 42.9687C48.4675 42.6233 48.5562 42.28 48.639 41.9351C48.8609 41.0227 49.3497 40.4268 50.2419 40.0829C51.6943 39.5227 52.9288 38.5668 53.9435 37.4331C54.7362 36.5498 55.4163 35.5662 56.0957 34.5838L56.0961 34.5831C56.3247 34.2525 56.5532 33.9221 56.7859 33.5956C56.8725 33.476 56.9099 33.3212 56.9554 33.1325C56.9784 33.0373 57.0035 32.9334 57.038 32.8211C56.9165 32.8279 56.8096 32.8276 56.714 32.8274C56.5329 32.827 56.3924 32.8267 56.2705 32.8743C54.0626 33.7385 52.1067 34.9457 50.7748 36.9856L50.7525 37.0202C50.5917 37.2697 50.4143 37.545 49.8903 37.7538C50.1477 37.1373 50.3916 36.5385 50.6298 35.9535C51.15 34.676 51.6434 33.4645 52.1914 32.2791C53.2643 29.9556 53.3756 27.5733 52.8042 24.9893C52.7197 25.0452 52.6323 25.0955 52.5459 25.1452C52.3673 25.2479 52.1936 25.3479 52.0619 25.4886L51.9406 25.6194L51.9405 25.6195C51.4825 26.113 51.0187 26.6129 50.6494 27.1706C50.2881 27.7161 49.9135 28.3296 49.8133 28.957C49.6968 29.6772 49.6539 30.4091 49.6109 31.1414V31.1415V31.1416V31.1416C49.5792 31.6816 49.5475 32.2219 49.4863 32.7581C49.3974 33.5165 49.4583 34.2069 49.8483 34.8736C49.9513 35.0466 50.0192 35.3148 49.9653 35.4961C49.8169 35.9817 49.6379 36.4582 49.4501 36.9582C49.3774 37.1518 49.3034 37.3489 49.2293 37.5514C49.1769 37.4931 49.1353 37.4507 49.1029 37.4177C49.0479 37.3617 49.0196 37.3329 49.0108 37.2993C48.9758 37.1796 48.945 37.0514 48.9499 36.9282C49.0178 35.1194 48.4401 33.4717 47.6418 31.8967C47.4401 31.5025 47.3084 31.1916 47.5851 30.826C46.9646 30.5018 46.6831 30.6145 46.473 31.2917C46.339 31.7276 46.2391 32.1739 46.1393 32.62C46.1067 32.7659 46.0741 32.9117 46.0403 33.0571C45.5613 35.1187 45.8071 37.0528 47.0549 38.8112C47.3505 39.2272 47.625 39.6579 47.8813 40.0997L47.8869 40.1096C48.008 40.3203 48.1615 40.5876 48.1243 40.7951C48.1058 40.8922 48.0876 40.9894 48.0695 41.0867C47.8902 42.0462 47.7086 43.0182 47.2286 43.989C47.1814 43.9172 47.1387 43.8598 47.1019 43.8105C47.0394 43.7266 46.9943 43.666 46.9744 43.5976C46.5234 41.9569 45.7812 40.438 44.9912 38.945C44.5627 38.1299 44.0732 37.3449 43.5753 36.569C43.4829 36.4233 43.2266 36.3239 43.0445 36.3253C42.9535 36.3267 42.8204 36.5921 42.7833 36.7538C42.2007 39.3224 42.4198 41.7384 44.0361 43.9428C44.6252 44.7451 45.141 45.6028 45.656 46.459L45.6564 46.4597C45.7993 46.6973 45.9421 46.9349 46.0865 47.1711C46.1894 47.337 46.2433 47.6045 46.1873 47.7831C45.8983 48.6898 45.5905 49.5902 45.2827 50.4908L45.2824 50.4913C45.1824 50.7841 45.0823 51.0769 44.9828 51.3699C44.9587 51.3673 44.9347 51.365 44.9108 51.3626L44.8954 51.3611C44.8728 51.3588 44.8504 51.3566 44.8281 51.3542L44.7882 51.3496C44.7719 51.2399 44.7554 51.1303 44.7388 51.0208L44.7387 51.0202C44.6888 50.6904 44.639 50.3612 44.5991 50.0296C44.3267 47.8048 43.5305 45.7929 42.2105 43.9771C41.9197 43.5767 41.6497 43.1623 41.3798 42.748C41.148 42.3921 40.9162 42.0362 40.6713 41.6893C40.5903 41.576 40.4574 41.4993 40.3001 41.4086C40.2194 41.3621 40.1322 41.3118 40.0424 41.251C40.0074 41.3616 39.9796 41.4517 39.9558 41.5287C39.9164 41.6563 39.888 41.7481 39.8562 41.8385C39.6649 42.3775 39.7506 42.9069 39.8361 43.4357L39.8362 43.4358C39.8872 43.7514 39.9382 44.0668 39.9304 44.384C39.8681 47.1213 40.9843 49.3888 42.7182 51.4119C42.817 51.5275 42.9249 51.6376 43.0328 51.7476C43.2414 51.9603 43.4497 52.1727 43.5914 52.4238C43.8155 52.8202 44.1026 53.351 44.0039 53.7263C43.8215 54.4032 43.5373 55.0509 43.2528 55.6991L43.2527 55.6992C43.1384 55.9596 43.0241 56.2201 42.9163 56.4826C42.8897 56.4803 42.8626 56.4776 42.8354 56.475L42.8351 56.475C42.796 56.4711 42.7566 56.4673 42.7175 56.4644C42.4388 52.615 40.7973 49.4617 37.9325 46.8735C37.5691 47.1354 37.5796 47.4869 37.6055 47.8314C37.6258 48.1131 37.6425 48.3955 37.6592 48.6779L37.6592 48.6788C37.7046 49.4471 37.75 50.2159 37.8688 50.9735C38.1125 52.5268 38.576 53.9973 39.7042 55.2018C40.2193 55.7509 40.6773 56.3526 41.1354 56.9541C41.3549 57.2424 41.5744 57.5306 41.8001 57.8131C42.0942 58.18 42.0914 58.533 41.8946 58.9636C40.5657 61.88 35.1441 70.8254 33.1352 73.6337C31.5683 69.2097 27.7224 54.7172 27.0779 50.2032C26.9833 49.5428 27.1199 49.0653 27.6626 48.6864C28.0807 48.3939 28.4928 48.0909 28.9049 47.7878L28.9051 47.7876C29.7607 47.1584 30.6167 46.5289 31.5288 45.9925C33.5295 44.8139 34.7388 43.0128 35.6849 41.0114C36.1466 40.0352 36.5135 39.014 36.8801 37.9933L36.8803 37.9926L36.8805 37.9923L36.8806 37.9919L36.8808 37.9916C37.0149 37.6181 37.149 37.2446 37.2878 36.8735C37.4587 36.4183 37.6127 35.9485 37.2255 35.4506C32.3306 37.8084 28.8628 41.4148 26.9588 46.5016C26.9051 46.4901 26.8506 46.4798 26.7966 46.4696L26.7244 46.4558L26.6829 46.4476C26.6416 46.0506 26.5906 45.6536 26.5396 45.2567L26.5396 45.2563C26.4126 44.2679 26.2858 43.28 26.3083 42.2943C26.3237 41.7481 26.9224 41.1452 27.3818 40.6984C27.6731 40.4163 28.0391 40.2118 28.4052 40.0072L28.4053 40.0072L28.4054 40.0071L28.4054 40.0071L28.4055 40.0071C28.5945 39.9015 28.7835 39.7958 28.9623 39.6795C32.1072 37.6354 34.5133 35.0164 35.5161 31.2959C35.6315 30.8647 35.8255 30.4592 36.0196 30.0535C36.3449 29.3734 36.6706 28.6926 36.6268 27.889C36.6192 27.7522 36.6173 27.6151 36.6146 27.4232V27.4227C36.613 27.3112 36.6112 27.1813 36.6079 27.0221C36.4628 27.0683 36.3254 27.1015 36.1982 27.1322C35.9496 27.1922 35.7395 27.2429 35.5848 27.3638C35.1188 27.7331 34.6668 28.1198 34.2147 28.5065L34.2146 28.5066L34.2143 28.5069C33.6833 28.9611 33.1521 29.4155 32.5981 29.8421C30.096 31.7699 28.2221 34.1712 26.9714 37.0661C26.7892 37.4916 26.594 37.9105 26.3988 38.3295C26.3299 38.4774 26.261 38.6252 26.1927 38.7734C26.1315 38.7632 26.0693 38.7514 26.0067 38.7396L26.0067 38.7396L25.9217 38.7236C25.903 38.2687 25.8832 37.8138 25.8634 37.359L25.8633 37.3569L25.8632 37.3548L25.8631 37.3527L25.863 37.3506C25.8056 36.0349 25.7482 34.7197 25.7186 33.4037C25.7137 33.139 25.893 32.7993 26.0975 32.6166C26.3881 32.3532 26.6772 32.0874 26.9664 31.8215L26.9666 31.8214C27.9999 30.8713 29.0349 29.9198 30.1471 29.0718C33.2038 26.7357 34.4594 23.5606 34.6919 19.8611C34.7059 19.6286 34.6317 19.2169 34.5091 19.1791C34.264 19.1048 33.8782 19.1377 33.6954 19.2967C32.7157 20.1475 31.7431 21.0138 30.8411 21.9437ZM35.0946 29.5753C32.0988 30.4107 27.8699 35.7188 27.0442 39.711C31.2599 37.4008 33.9447 34.1691 35.0946 29.5753ZM29.4582 46.2146L29.4582 46.2146C28.9811 46.5573 28.499 46.9038 28.0155 47.2621C28.2312 44.2999 32.0309 39.2951 36.0203 37.6606C35.8454 38.0318 35.6736 38.4049 35.5018 38.7781C35.0985 39.654 34.6949 40.5305 34.25 41.384C34.1846 41.5081 34.1198 41.6346 34.0545 41.762C33.6907 42.472 33.3131 43.2088 32.7473 43.7005C31.7156 44.5928 30.6017 45.3931 29.4584 46.2145L29.4582 46.2146ZM29.4261 28.3182C29.0343 28.6947 28.6424 29.0713 28.2389 29.4338C27.7332 29.8851 27.2076 30.314 26.6825 30.7425C26.4579 30.9257 26.2334 31.1089 26.0106 31.2938C25.9084 31.2055 25.809 31.118 25.7074 31.0291C27.4406 27.0725 29.8999 23.6783 33.6128 20.8387C33.2669 23.3849 32.6541 25.4262 30.8824 26.9647C30.3831 27.3986 29.9047 27.8583 29.4262 28.3181L29.4261 28.3182ZM26.3015 11.1227C26.199 11.5097 26.0965 11.8967 25.9966 12.2842C25.9533 12.4429 25.8508 12.5864 25.7481 12.7303C25.6999 12.7978 25.6516 12.8654 25.6094 12.9347L25.5533 12.9206L25.485 12.9039C25.4274 12.8898 25.3703 12.8759 25.3153 12.8612C24.531 9.36124 24.2551 5.89909 26.0898 2.3144C27.2242 3.95304 27.5484 5.53845 27.2368 7.2051C26.9902 8.52237 26.6459 9.82259 26.3015 11.1227ZM25.4126 47.8237C21.4007 46.4616 19.1018 43.3552 17.3077 39.7348C21.0862 41.0236 23.0675 44.1383 25.0569 47.2655L25.0569 47.2655C25.1753 47.4516 25.2938 47.6378 25.4126 47.8237ZM16.8763 29.1691C18.6088 32.9562 20.3713 36.7223 24.2992 39.2551C23.6493 36.3861 19.9617 31.3918 16.8763 29.1691ZM26.2921 20.9143C29.0575 19.2848 31.0218 16.6665 30.582 12.5433C28.1927 14.8269 27.0779 17.7715 26.2921 20.9143ZM18.7194 11.3416C18.3672 13.0958 21.5247 18.9781 23.531 20.1748C23.5996 17.4718 21.0786 12.9095 18.7194 11.3416ZM22.4897 28.6894C21.9925 26.583 18.7712 21.5432 17.2313 20.6223C18.1739 23.7539 20.5352 26.992 22.4897 28.6894ZM16.9836 43.2951C15.1089 44.4645 13.2889 48.9309 13.5263 51.8181C15.9374 49.3979 17.1201 46.6571 16.9836 43.2951ZM16.4717 55.7725C16.2163 56.1002 15.9581 56.4315 15.7014 56.7711C15.2553 54.7088 16.8421 50.5352 19.2342 48.6213C19.1898 48.9074 19.1478 49.1941 19.1059 49.4808L19.1058 49.481L19.1058 49.4811L19.1058 49.4813L19.1058 49.4814L19.1058 49.4815L19.1057 49.4816L19.1057 49.4817L19.1057 49.4817C19.0062 50.1617 18.9066 50.8417 18.7742 51.5149C18.7541 51.6137 18.735 51.714 18.7157 51.8151C18.6098 52.3708 18.5 52.947 18.2132 53.3944C17.688 54.2117 17.0879 54.9817 16.4718 55.7723L16.4717 55.7725ZM12.865 43.5779L12.8649 43.5781C12.674 43.912 12.4832 44.2458 12.2819 44.5724C12.0281 44.9802 11.7566 45.3767 11.4854 45.7728L11.4854 45.7728C11.3682 45.9439 11.2511 46.1149 11.1356 46.2866C11.0865 46.2644 11.0386 46.2422 10.9906 46.22L10.9889 46.2193L10.9124 46.184L10.8751 46.1669C11.2644 43.1228 12.2609 40.3161 14.2231 37.6362C14.4976 39.4415 14.4885 40.9555 13.5886 42.3595C13.3346 42.7565 13.0999 43.1671 12.8652 43.5777L12.8651 43.5777L12.8651 43.5778L12.865 43.5779L12.865 43.5779ZM7.29243 32.4869V32.487V32.4871V32.4872V32.4873C7.30003 32.7683 7.30764 33.0493 7.31701 33.3302C7.31893 33.4483 7.27738 33.5675 7.23572 33.6869C7.21663 33.7416 7.19752 33.7964 7.18256 33.8512C7.15381 33.8523 7.12473 33.8537 7.09566 33.855L7.01788 33.8585L6.96758 33.8603C5.7316 31.6313 4.84996 29.3267 5.38286 26.5152C6.48439 27.4052 7.0236 28.4206 7.14474 29.6195C7.24058 30.5702 7.2665 31.5285 7.29243 32.4869ZM14.0396 57.6751C11.032 57.5505 8.8422 55.8937 6.89335 53.7851C9.72791 53.9068 11.7032 55.6334 13.6863 57.3668L13.6914 57.3713C13.8074 57.4726 13.9234 57.574 14.0396 57.6751ZM4.48231 46.6683C6.42207 48.9035 8.37792 51.1171 11.5635 52.0576C10.546 50.2313 7.0313 47.5653 4.48231 46.6683ZM9.24696 39.1544C10.8065 37.4891 11.6209 35.3106 10.4948 32.5879C9.32329 34.6243 9.15312 36.8547 9.24696 39.1544ZM2.16721 34.146C2.27785 35.4121 5.60905 38.7902 7.21687 39.2034C6.72248 37.347 4.08946 34.7419 2.16721 34.146ZM8.21336 45.2166C7.45216 43.8805 4.24632 41.0899 3.01174 40.7706C4.28203 42.7166 6.54041 44.4512 8.21336 45.2166ZM40.5627 43.2951C42.4374 44.4645 44.2567 48.9309 44.02 51.8181C41.6089 49.3979 40.4262 46.6571 40.5627 43.2951ZM41.8449 56.7711C41.5882 56.4315 41.33 56.1002 41.0746 55.7725L41.0745 55.7724C40.4584 54.9818 39.8583 54.2117 39.333 53.3944C39.0452 52.9453 38.9351 52.3664 38.8291 51.8086C38.8103 51.7098 38.7916 51.6116 38.7721 51.5149C38.6406 50.8464 38.5415 50.1712 38.4424 49.496C38.3996 49.2043 38.3568 48.9125 38.3113 48.6213C40.7035 50.5352 42.291 54.7088 41.8449 56.7711ZM45.2644 44.5724C45.0624 44.2451 44.8711 43.9106 44.6799 43.576C44.4455 43.166 44.2111 42.7559 43.9569 42.3595C43.0578 40.9555 43.0487 39.4415 43.3232 37.6362C45.2854 40.3161 46.2818 43.1228 46.6705 46.1669L46.567 46.2147L46.4758 46.2568L46.4107 46.2866C46.2951 46.1149 46.178 45.9439 46.0609 45.7727C45.7897 45.3767 45.5181 44.9802 45.2644 44.5724ZM50.2539 32.4817V32.4816L50.2539 32.4811V32.4809C50.2797 31.5245 50.3054 30.5682 50.4016 29.6195C50.5227 28.4206 51.0619 27.4052 52.1634 26.5152C52.6956 29.3267 51.814 31.6313 50.578 33.8603C50.5458 33.8593 50.5126 33.8579 50.4791 33.8564L50.4533 33.8552L50.4193 33.8536L50.363 33.8512C50.3481 33.7957 50.3288 33.7403 50.3095 33.6849L50.3095 33.6848C50.2681 33.5661 50.2269 33.4477 50.2293 33.3302C50.2387 33.0475 50.2463 32.7647 50.2539 32.4818V32.4818V32.4817ZM50.6529 53.7851C48.7041 55.8937 46.5143 57.5505 43.5067 57.6751C43.6239 57.5732 43.741 57.4709 43.858 57.3686L43.86 57.3668C45.8431 55.6334 47.8184 53.9068 50.6529 53.7851ZM53.064 46.6683C51.1242 48.9035 49.1677 51.1171 45.9828 52.0576C47.0003 50.2313 50.515 47.5653 53.064 46.6683ZM48.2986 39.1544C46.7398 37.4891 45.9254 35.3106 47.0514 32.5879C48.223 34.6243 48.3925 36.8547 48.2986 39.1544ZM55.3791 34.146C55.2677 35.4121 51.9365 38.7902 50.3287 39.2034C50.8238 37.347 53.4561 34.7419 55.3791 34.146ZM49.3329 45.2166C50.0941 43.8805 53.3 41.0899 54.5339 40.7706C53.2643 42.7166 51.0059 44.4512 49.3329 45.2166ZM187.585 54.4511C187.48 54.4511 187.385 54.3591 187.385 54.2568V48.2548H185.669C185.553 48.2548 185.469 48.1628 185.469 48.0605V47.4879C185.469 47.3857 185.553 47.2937 185.669 47.2937H190.196C190.312 47.2937 190.396 47.3857 190.396 47.4879V48.0605C190.396 48.1628 190.312 48.2548 190.196 48.2548H188.48V54.2568C188.48 54.3591 188.385 54.4511 188.28 54.4511H187.585ZM195.712 54.4511C195.596 54.4511 195.512 54.3591 195.512 54.2568V47.4879C195.512 47.3857 195.596 47.2937 195.712 47.2937H198.575C199.839 47.2937 200.87 48.265 200.87 49.4818C200.87 50.4225 200.228 51.1996 199.312 51.5574L200.754 54.1546C200.828 54.2875 200.754 54.4511 200.576 54.4511H199.754C199.67 54.4511 199.607 54.4 199.586 54.3591L198.186 51.6495H196.596V54.2568C196.596 54.3591 196.501 54.4511 196.396 54.4511H195.712ZM196.617 48.2855V50.7701H198.491C199.175 50.7701 199.775 50.2077 199.775 49.5022C199.775 48.8376 199.175 48.2855 198.491 48.2855H196.617ZM209.249 54.5533C207.597 54.5533 206.396 53.3366 206.396 51.7824V47.4879C206.396 47.3857 206.491 47.2937 206.596 47.2937H207.302C207.418 47.2937 207.502 47.3857 207.502 47.4879V51.7108C207.502 52.7333 208.176 53.5308 209.249 53.5308C210.334 53.5308 211.018 52.7435 211.018 51.7313V47.4879C211.018 47.3857 211.102 47.2937 211.218 47.2937H211.923C212.029 47.2937 212.123 47.3857 212.123 47.4879V51.7824C212.123 53.3366 210.913 54.5533 209.249 54.5533ZM219.903 54.5533C218.619 54.5533 217.808 53.8989 217.64 53.7456C217.545 53.6638 217.471 53.5922 217.577 53.4184C217.624 53.3519 217.669 53.2802 217.714 53.2086L217.714 53.2082C217.758 53.1368 217.803 53.0654 217.85 52.9991C217.945 52.8662 218.093 52.8253 218.208 52.9173C218.271 52.9685 219.082 53.6229 219.893 53.6229C220.619 53.6229 221.082 53.1934 221.082 52.672C221.082 52.0585 220.535 51.6699 219.493 51.2507C218.419 50.811 217.577 50.2691 217.577 49.083C217.577 48.2855 218.208 47.1914 219.882 47.1914C220.935 47.1914 221.725 47.7231 221.83 47.7947C221.914 47.8458 221.998 47.989 221.893 48.1423C221.851 48.204 221.806 48.2709 221.761 48.3377L221.758 48.3413C221.715 48.4062 221.671 48.471 221.63 48.5309C221.546 48.6638 221.409 48.7251 221.261 48.6331C221.256 48.6301 221.247 48.6246 221.234 48.6171L221.232 48.6162L221.23 48.6148C221.067 48.5181 220.401 48.1219 219.84 48.1219C218.956 48.1219 218.65 48.6638 218.65 49.0421C218.65 49.6249 219.114 49.9828 219.987 50.3305C221.209 50.811 222.251 51.3734 222.251 52.6208C222.251 53.6842 221.272 54.5533 219.903 54.5533ZM228.893 54.4511C228.788 54.4511 228.693 54.3591 228.693 54.2568V48.2548H226.977C226.861 48.2548 226.777 48.1628 226.777 48.0605V47.4879C226.777 47.3857 226.861 47.2937 226.977 47.2937H231.504C231.62 47.2937 231.704 47.3857 231.704 47.4879V48.0605C231.704 48.1628 231.62 48.2548 231.504 48.2548H229.788V54.2568C229.788 54.3591 229.693 54.4511 229.588 54.4511H228.893ZM80.904 54.5533C78.7985 54.5533 77.1035 52.9276 77.1035 50.8826C77.1035 48.8376 78.7985 47.1914 80.904 47.1914C81.9673 47.1914 82.7358 47.5391 83.4517 48.1423C83.5464 48.2241 83.5464 48.3468 83.4622 48.4286L82.999 48.8887C82.9253 48.9808 82.8305 48.9808 82.7358 48.8887C82.241 48.4695 81.5672 48.2037 80.9145 48.2037C79.4091 48.2037 78.2721 49.4307 78.2721 50.8621C78.2721 52.2936 79.4196 53.5104 80.925 53.5104C81.6935 53.5104 82.2305 53.2139 82.7358 52.8355C82.8305 52.764 82.9253 52.7742 82.9884 52.8253L83.4727 53.2854C83.5569 53.357 83.5359 53.4899 83.4622 53.5615C82.7463 54.2364 81.8409 54.5533 80.904 54.5533ZM89.1462 54.4511C89.0409 54.4511 88.9462 54.3591 88.9462 54.2568V47.4879C88.9462 47.3857 89.0409 47.2937 89.1462 47.2937H89.841C89.9568 47.2937 90.041 47.3857 90.041 47.4879V50.3407H93.8941V47.4879C93.8941 47.3857 93.9784 47.2937 94.0942 47.2937H94.789C94.8943 47.2937 94.989 47.3857 94.989 47.4879V54.2568C94.989 54.3591 94.8943 54.4511 94.789 54.4511H94.0942C93.9784 54.4511 93.8941 54.3591 93.8941 54.2568V51.3018H90.041V54.2568C90.041 54.3591 89.9568 54.4511 89.841 54.4511H89.1462ZM100.863 54.4511H100.2C100.042 54.4511 99.958 54.3182 100.021 54.1852L103.253 47.3039C103.285 47.2425 103.38 47.1914 103.432 47.1914H103.537C103.59 47.1914 103.685 47.2425 103.716 47.3039L106.927 54.1852C106.99 54.3182 106.906 54.4511 106.748 54.4511H106.085C105.959 54.4511 105.885 54.3897 105.843 54.2977L105.19 52.8969H101.748C101.642 53.1321 101.535 53.3647 101.427 53.5973C101.319 53.8299 101.211 54.0625 101.106 54.2977C101.074 54.3693 100.99 54.4511 100.863 54.4511ZM103.443 49.2159L102.158 52.0176H104.79L103.495 49.2159H103.443ZM112.159 54.4511C112.043 54.4511 111.959 54.3591 111.959 54.2568V47.4879C111.959 47.3857 112.043 47.2937 112.159 47.2937H115.022C116.285 47.2937 117.317 48.265 117.317 49.4818C117.317 50.4225 116.675 51.1996 115.759 51.5574L117.201 54.1546C117.275 54.2875 117.201 54.4511 117.022 54.4511H116.201C116.117 54.4511 116.054 54.4 116.033 54.3591L114.633 51.6495H113.043V54.2568C113.043 54.3591 112.948 54.4511 112.843 54.4511H112.159ZM113.064 48.2855V50.7701H114.938C115.622 50.7701 116.222 50.2077 116.222 49.5022C116.222 48.8376 115.622 48.2855 114.938 48.2855H113.064ZM123.139 54.4511C123.034 54.4511 122.939 54.3591 122.939 54.2568V47.4879C122.939 47.3857 123.034 47.2937 123.139 47.2937H123.834C123.939 47.2937 124.034 47.3857 124.034 47.4879V54.2568C124.034 54.3591 123.939 54.4511 123.834 54.4511H123.139ZM131.265 54.4511C131.16 54.4511 131.065 54.3591 131.065 54.2568V48.2548H129.349C129.234 48.2548 129.149 48.1628 129.149 48.0605V47.4879C129.149 47.3857 129.234 47.2937 129.349 47.2937H133.876C133.992 47.2937 134.076 47.3857 134.076 47.4879V48.0605C134.076 48.1628 133.992 48.2548 133.876 48.2548H132.16V54.2568C132.16 54.3591 132.065 54.4511 131.96 54.4511H131.265ZM139.044 54.4511H138.381C138.223 54.4511 138.139 54.3182 138.202 54.1852L141.434 47.3039C141.466 47.2425 141.56 47.1914 141.613 47.1914H141.718C141.771 47.1914 141.866 47.2425 141.897 47.3039L145.108 54.1852C145.171 54.3182 145.087 54.4511 144.929 54.4511H144.266C144.14 54.4511 144.066 54.3897 144.024 54.2977L143.371 52.8969H139.929C139.823 53.1321 139.715 53.3647 139.608 53.5973C139.5 53.8299 139.392 54.0625 139.286 54.2977C139.255 54.3693 139.171 54.4511 139.044 54.4511ZM141.624 49.2159L140.339 52.0176H142.971L141.676 49.2159H141.624ZM150.34 54.4511C150.225 54.4511 150.14 54.3591 150.14 54.2568V47.4879C150.14 47.3857 150.225 47.2937 150.34 47.2937H152.699C153.972 47.2937 154.888 48.1116 154.888 49.1853C154.888 49.9726 154.288 50.5349 153.794 50.811C154.351 51.036 155.109 51.537 155.109 52.4777C155.109 53.6229 154.141 54.4511 152.814 54.4511H150.34ZM151.214 48.2548V50.402H152.635C153.309 50.402 153.72 49.9214 153.72 49.308C153.72 48.6842 153.309 48.2548 152.635 48.2548H151.214ZM151.204 51.3223V53.5104H152.804C153.446 53.5104 153.941 53.0298 153.941 52.3959C153.941 51.7722 153.33 51.3223 152.646 51.3223H151.204ZM160.867 54.4511C160.751 54.4511 160.667 54.3591 160.667 54.2568V47.4879C160.667 47.3857 160.751 47.2937 160.867 47.2937H161.562C161.667 47.2937 161.762 47.3857 161.762 47.4879V53.5002H164.615C164.731 53.5002 164.815 53.5922 164.815 53.6944V54.2568C164.815 54.3591 164.731 54.4511 164.615 54.4511H160.867ZM170.1 54.4511C169.984 54.4511 169.9 54.3591 169.9 54.2568V47.4879C169.9 47.3857 169.984 47.2937 170.1 47.2937H174.311C174.427 47.2937 174.511 47.3857 174.511 47.4879V48.0605C174.511 48.1628 174.427 48.2548 174.311 48.2548H170.984V50.3407H173.795C173.9 50.3407 173.995 50.4327 173.995 50.5349V51.1075C173.995 51.22 173.9 51.3018 173.795 51.3018H170.984V53.5002H174.311C174.427 53.5002 174.511 53.5922 174.511 53.6944V54.2568C174.511 54.3591 174.427 54.4511 174.311 54.4511H170.1ZM74.75 39.5791H75H234.859H235.109V40.0791H234.859H75H74.75V39.5791ZM78.6117 31.1819C78.3042 31.1819 78.1149 30.9716 78.1622 30.6444L80.9772 14.9389C81.0008 14.752 81.1428 14.5884 81.403 14.5884H81.7815C81.9707 14.5884 82.1126 14.6819 82.1836 14.8221L87.3877 25.8533H87.4586L92.6627 14.8221C92.7337 14.6819 92.852 14.5884 93.0649 14.5884H93.4433C93.7036 14.5884 93.8455 14.752 93.8691 14.9389L96.6604 30.6444C96.7314 30.9716 96.5421 31.1819 96.2346 31.1819H94.082C93.8691 31.1819 93.6799 30.995 93.6326 30.8314L92.237 21.9737H92.166L88.0264 31.1585C87.9791 31.2988 87.8371 31.4156 87.6242 31.4156H87.1984C86.9855 31.4156 86.8673 31.2988 86.7963 31.1585L82.6094 21.9737H82.5384L81.1664 30.8314C81.1428 30.995 80.9535 31.1819 80.7406 31.1819H78.6117ZM117.144 31.4156C112.413 31.4156 108.652 27.6996 108.652 23.0254C108.652 18.3511 112.413 14.5884 117.144 14.5884C121.875 14.5884 125.66 18.3511 125.66 23.0254C125.66 27.6996 121.875 31.4156 117.144 31.4156ZM117.144 17.6266C114.164 17.6266 111.727 20.0806 111.727 23.0254C111.727 25.9701 114.164 28.3774 117.144 28.3774C120.125 28.3774 122.585 25.9701 122.585 23.0254C122.585 20.0806 120.125 17.6266 117.144 17.6266ZM139.142 31.1819C138.906 31.1819 138.693 30.9716 138.693 30.7379V15.0091C138.693 14.7753 138.906 14.5884 139.142 14.5884H139.734L149.574 24.9184H149.598V15.2661C149.598 15.0324 149.787 14.8221 150.047 14.8221H152.223C152.46 14.8221 152.673 15.0324 152.673 15.2661V30.9949C152.673 31.2287 152.46 31.4156 152.223 31.4156H151.656L141.768 20.6883H141.744V30.7379C141.744 30.9716 141.555 31.1819 141.295 31.1819H139.142ZM167.338 31.1819C167.101 31.1819 166.912 30.9716 166.912 30.7379V15.2661C166.912 15.0324 167.101 14.8221 167.338 14.8221H172.944C177.509 14.8221 181.247 18.4914 181.247 22.9786C181.247 27.5126 177.509 31.1819 172.944 31.1819H167.338ZM169.963 17.65V28.3306H172.66C175.735 28.3306 177.982 26.0403 177.982 22.9786C177.982 19.9404 175.735 17.65 172.66 17.65H169.963ZM194.611 31.1819H192.553C192.198 31.1819 192.009 30.8781 192.151 30.5743L199.507 14.8455C199.578 14.7052 199.696 14.5884 199.909 14.5884H200.146C200.382 14.5884 200.477 14.7052 200.548 14.8455L207.834 30.5743C207.976 30.8781 207.786 31.1819 207.432 31.1819H205.374C205.019 31.1819 204.853 31.0417 204.688 30.7145L203.529 28.1904H196.456L195.297 30.7145C195.202 30.9482 194.989 31.1819 194.611 31.1819ZM200.004 20.4545H199.933L197.615 25.5962H202.369L200.004 20.4545ZM223.539 31.1819C223.279 31.1819 223.09 30.9716 223.09 30.7379V23.3058L217.697 15.4999C217.507 15.196 217.697 14.8221 218.075 14.8221H220.488C220.677 14.8221 220.795 14.9389 220.866 15.0324L224.651 20.4078L228.436 15.0324C228.507 14.9389 228.625 14.8221 228.814 14.8221H231.251C231.629 14.8221 231.819 15.196 231.629 15.4999L226.165 23.2825V30.7379C226.165 30.9716 225.952 31.1819 225.716 31.1819H223.539Z" fill="#1B2764"/>
</svg>
