<svg width="23" height="23" viewBox="0 0 23 23" fill="none" xmlns="http://www.w3.org/2000/svg">
<path d="M15.7804 14.4654H14.7831L14.4296 14.1103C15.6668 12.6112 16.4117 10.665 16.4117 8.54774C16.4117 3.82676 12.738 0 8.20583 0C3.67369 0 0 3.82676 0 8.54774C0 13.2687 3.67369 17.0955 8.20583 17.0955C10.2384 17.0955 12.1068 16.3196 13.5459 15.0309L13.8868 15.3991V16.438L20.199 23L22.08 21.0406L15.7804 14.4654ZM8.20583 14.4654C5.06237 14.4654 2.52487 11.8222 2.52487 8.54774C2.52487 5.2733 5.06237 2.63007 8.20583 2.63007C11.3493 2.63007 13.8868 5.2733 13.8868 8.54774C13.8868 11.8222 11.3493 14.4654 8.20583 14.4654Z" fill="white"/>
</svg>
