<svg width="191" height="64" viewBox="0 0 191 64" fill="none" xmlns="http://www.w3.org/2000/svg">
<path d="M11.6399 29.4801C17.3999 29.4801 20.3999 26.3201 21.5199 21.4401L15.9199 20.0801C15.3199 22.7201 14.3199 24.6401 11.5199 24.6401C8.27993 24.6401 7.03993 21.9201 7.03993 17.4801V12.6001C7.03993 8.1601 8.27993 5.4401 11.5199 5.4401C14.3199 5.4401 15.3199 7.3601 15.9199 10.0001L21.5199 8.6401C20.3999 3.7601 17.3999 0.600098 11.6399 0.600098C4.15993 0.600098 0.639934 5.8801 0.639934 15.0401C0.639934 24.2001 4.15993 29.4801 11.6399 29.4801Z" fill="white"/>
<path d="M42.5043 29.0001H48.5443V1.0801H42.5043V12.4001H35.4643V1.0801H29.4243V29.0001H35.4643V17.3201H42.5043V29.0001Z" fill="white"/>
<path d="M78.7687 29.0001L71.2087 1.0801H62.7287L55.1687 29.0001H61.2487L62.9687 22.2801H70.6087L72.3687 29.0001H78.7687ZM69.6887 17.4401H63.9287L66.6487 6.8801H66.9687L69.6887 17.4401Z" fill="white"/>
<path d="M97.3131 29.0001H104.513V1.0801H99.3931V19.6401H98.9531L92.5931 1.0801H85.3931V29.0001H90.5131V10.4401H90.9531L97.3131 29.0001Z" fill="white"/>
<path d="M133.977 6.0001V1.0801H111.897V6.0001H119.937V29.0001H125.937V6.0001H133.977Z" fill="white"/>
<path d="M147.882 18.6401H150.642L155.322 29.0001H161.882L156.402 17.8401C159.522 16.9601 161.322 13.8801 161.322 9.9601C161.322 4.5601 158.242 1.0801 152.762 1.0801H141.962V29.0001H147.882V18.6401ZM147.882 14.0001V5.9201H151.322C154.122 5.9201 155.082 6.9201 155.082 9.3601V10.5601C155.082 13.0001 154.122 14.0001 151.322 14.0001H147.882Z" fill="white"/>
<path d="M181.906 29.0001V19.1201L190.746 1.0801H184.306L181.346 7.5601L179.186 13.0401H178.866L176.706 7.5601L173.746 1.0801H167.066L175.906 19.1201V29.0001H181.906Z" fill="white"/>
<path d="M6.65593 59.3036C5.67327 59.3036 4.78593 59.1277 3.99393 58.7757C3.20193 58.409 2.52727 57.8883 1.96993 57.2136C1.4126 56.539 0.979934 55.7103 0.671934 54.7276C0.3786 53.745 0.231934 52.623 0.231934 51.3616C0.231934 50.071 0.3786 48.9343 0.671934 47.9516C0.979934 46.969 1.40527 46.1403 1.94793 45.4656C2.50527 44.791 3.1726 44.285 3.94993 43.9476C4.74193 43.5956 5.62193 43.4196 6.58993 43.4196C7.7046 43.4196 8.59927 43.603 9.27393 43.9697C9.9486 44.3363 10.3813 44.7543 10.5719 45.2236H10.6599V43.6837H11.8699V48.1716H10.6599V46.9617C10.6599 46.5803 10.5646 46.2283 10.3739 45.9057C10.1833 45.583 9.91193 45.3043 9.55993 45.0696C9.2226 44.835 8.81193 44.6516 8.32793 44.5196C7.84393 44.3876 7.31593 44.3216 6.74393 44.3216C5.9226 44.3216 5.20393 44.4683 4.58793 44.7617C3.97193 45.0403 3.4586 45.4436 3.04793 45.9716C2.65193 46.4996 2.35127 47.1303 2.14593 47.8637C1.9406 48.5823 1.83793 49.3817 1.83793 50.2617V52.3517C1.83793 54.229 2.28527 55.681 3.17993 56.7076C4.0746 57.7343 5.3286 58.2477 6.94193 58.2477C8.08593 58.2477 9.0246 57.9763 9.75793 57.4337C10.5059 56.8763 11.0486 56.1576 11.3859 55.2776L12.0899 55.6077C11.9286 56.0623 11.7013 56.5096 11.4079 56.9496C11.1146 57.3896 10.7406 57.7856 10.2859 58.1376C9.83127 58.4896 9.30327 58.7757 8.70193 58.9957C8.1006 59.201 7.4186 59.3036 6.65593 59.3036Z" fill="white"/>
<path d="M19.4696 58.4456C20.6576 58.4456 21.5449 58.0717 22.1316 57.3237C22.7182 56.561 23.0116 55.5783 23.0116 54.3756V52.4397C23.0116 51.237 22.7182 50.2616 22.1316 49.5136C21.5449 48.751 20.6576 48.3696 19.4696 48.3696C18.2816 48.3696 17.3942 48.751 16.8076 49.5136C16.2209 50.2616 15.9276 51.237 15.9276 52.4397V54.3756C15.9276 55.5783 16.2209 56.561 16.8076 57.3237C17.3942 58.0717 18.2816 58.4456 19.4696 58.4456ZM19.4696 59.3036C18.6922 59.3036 17.9882 59.1716 17.3576 58.9076C16.7416 58.6436 16.2136 58.2623 15.7736 57.7636C15.3336 57.2503 14.9889 56.627 14.7396 55.8937C14.5049 55.1603 14.3876 54.3317 14.3876 53.4076C14.3876 52.4837 14.5049 51.6623 14.7396 50.9436C14.9889 50.2103 15.3336 49.5943 15.7736 49.0956C16.2136 48.5823 16.7416 48.1936 17.3576 47.9296C17.9882 47.651 18.6922 47.5117 19.4696 47.5117C20.2469 47.5117 20.9436 47.651 21.5596 47.9296C22.1902 48.1936 22.7256 48.5823 23.1656 49.0956C23.6056 49.5943 23.9429 50.2103 24.1776 50.9436C24.4269 51.6623 24.5516 52.4837 24.5516 53.4076C24.5516 54.3317 24.4269 55.1603 24.1776 55.8937C23.9429 56.627 23.6056 57.2503 23.1656 57.7636C22.7256 58.2623 22.1902 58.6436 21.5596 58.9076C20.9436 59.1716 20.2469 59.3036 19.4696 59.3036Z" fill="white"/>
<path d="M26.6955 58.2477H28.4335V48.8976L26.6955 48.6557V48.0616L29.7535 47.5556V49.6236H29.8635C29.9662 49.3743 30.0982 49.125 30.2595 48.8756C30.4355 48.6116 30.6409 48.3843 30.8755 48.1936C31.1249 47.9883 31.4109 47.827 31.7335 47.7096C32.0562 47.5776 32.4302 47.5117 32.8555 47.5117C33.4129 47.5117 33.8529 47.6436 34.1755 47.9076C34.5129 48.157 34.6815 48.5163 34.6815 48.9856C34.6815 49.3376 34.5862 49.6163 34.3955 49.8216C34.2049 50.0123 33.9629 50.1077 33.6695 50.1077C33.3469 50.1077 33.0902 50.0197 32.8995 49.8437C32.7089 49.6677 32.6135 49.4403 32.6135 49.1616C32.6135 48.927 32.6649 48.7363 32.7675 48.5896C32.8702 48.443 32.9875 48.355 33.1195 48.3256V48.2817C33.0755 48.267 32.9949 48.2597 32.8775 48.2597C32.7602 48.245 32.6575 48.2376 32.5695 48.2376C32.2469 48.2376 31.9169 48.3183 31.5795 48.4796C31.2569 48.641 30.9635 48.8536 30.6995 49.1176C30.4355 49.3816 30.2155 49.6823 30.0395 50.0196C29.8782 50.357 29.7975 50.6943 29.7975 51.0317V58.2477H31.9755V59.0396H26.6955V58.2477Z" fill="white"/>
<path d="M35.7123 62.6477H37.4503V48.8756L35.7123 48.6557V48.0616L38.8143 47.5556V49.5356H38.9023C39.1516 48.993 39.5549 48.5237 40.1123 48.1277C40.6843 47.717 41.4396 47.5117 42.3783 47.5117C43.8303 47.5117 44.9743 48.0103 45.8103 49.0076C46.6609 50.005 47.0863 51.4717 47.0863 53.4076C47.0863 55.3437 46.6609 56.8103 45.8103 57.8077C44.9743 58.805 43.8303 59.3036 42.3783 59.3036C41.4396 59.3036 40.6843 59.1056 40.1123 58.7096C39.5403 58.3136 39.1369 57.837 38.9023 57.2797H38.8143V62.6477H40.9923V63.4397H35.7123V62.6477ZM42.0263 58.3577C43.1703 58.3577 44.0503 57.9836 44.6663 57.2356C45.2823 56.4876 45.5903 55.4683 45.5903 54.1777V52.6157C45.5903 51.3397 45.2823 50.3277 44.6663 49.5797C44.0503 48.8317 43.1703 48.4576 42.0263 48.4576C41.6156 48.4576 41.2196 48.5163 40.8383 48.6336C40.4569 48.751 40.1123 48.9196 39.8043 49.1396C39.5109 49.3596 39.2689 49.6236 39.0783 49.9316C38.9023 50.2396 38.8143 50.5916 38.8143 50.9876V55.8276C38.8143 56.2236 38.9023 56.5757 39.0783 56.8837C39.2689 57.1917 39.5109 57.4557 39.8043 57.6757C40.1123 57.8957 40.4569 58.0643 40.8383 58.1816C41.2196 58.299 41.6156 58.3577 42.0263 58.3577Z" fill="white"/>
<path d="M54.6395 58.4456C55.8275 58.4456 56.7148 58.0717 57.3015 57.3237C57.8881 56.561 58.1815 55.5783 58.1815 54.3756V52.4397C58.1815 51.237 57.8881 50.2616 57.3015 49.5136C56.7148 48.751 55.8275 48.3696 54.6395 48.3696C53.4515 48.3696 52.5641 48.751 51.9775 49.5136C51.3908 50.2616 51.0975 51.237 51.0975 52.4397V54.3756C51.0975 55.5783 51.3908 56.561 51.9775 57.3237C52.5641 58.0717 53.4515 58.4456 54.6395 58.4456ZM54.6395 59.3036C53.8621 59.3036 53.1581 59.1716 52.5275 58.9076C51.9115 58.6436 51.3835 58.2623 50.9435 57.7636C50.5035 57.2503 50.1588 56.627 49.9095 55.8937C49.6748 55.1603 49.5575 54.3317 49.5575 53.4076C49.5575 52.4837 49.6748 51.6623 49.9095 50.9436C50.1588 50.2103 50.5035 49.5943 50.9435 49.0956C51.3835 48.5823 51.9115 48.1936 52.5275 47.9296C53.1581 47.651 53.8621 47.5117 54.6395 47.5117C55.4168 47.5117 56.1135 47.651 56.7295 47.9296C57.3601 48.1936 57.8955 48.5823 58.3355 49.0956C58.7755 49.5943 59.1128 50.2103 59.3475 50.9436C59.5968 51.6623 59.7215 52.4837 59.7215 53.4076C59.7215 54.3317 59.5968 55.1603 59.3475 55.8937C59.1128 56.627 58.7755 57.2503 58.3355 57.7636C57.8955 58.2623 57.3601 58.6436 56.7295 58.9076C56.1135 59.1716 55.4168 59.3036 54.6395 59.3036Z" fill="white"/>
<path d="M61.8654 58.2477H63.6035V48.8976L61.8654 48.6557V48.0616L64.9234 47.5556V49.6236H65.0334C65.1361 49.3743 65.2681 49.125 65.4295 48.8756C65.6055 48.6116 65.8108 48.3843 66.0454 48.1936C66.2948 47.9883 66.5808 47.827 66.9035 47.7096C67.2261 47.5776 67.6001 47.5117 68.0255 47.5117C68.5828 47.5117 69.0228 47.6436 69.3455 47.9076C69.6828 48.157 69.8514 48.5163 69.8514 48.9856C69.8514 49.3376 69.7561 49.6163 69.5655 49.8216C69.3748 50.0123 69.1328 50.1077 68.8394 50.1077C68.5168 50.1077 68.2601 50.0197 68.0695 49.8437C67.8788 49.6677 67.7834 49.4403 67.7834 49.1616C67.7834 48.927 67.8348 48.7363 67.9374 48.5896C68.0401 48.443 68.1575 48.355 68.2895 48.3256V48.2817C68.2455 48.267 68.1648 48.2597 68.0474 48.2597C67.9301 48.245 67.8274 48.2376 67.7394 48.2376C67.4168 48.2376 67.0868 48.3183 66.7495 48.4796C66.4268 48.641 66.1334 48.8536 65.8694 49.1176C65.6054 49.3816 65.3854 49.6823 65.2094 50.0196C65.0481 50.357 64.9675 50.6943 64.9675 51.0317V58.2477H67.1454V59.0396H61.8654V58.2477Z" fill="white"/>
<path d="M74.7542 59.3036C73.6542 59.3036 72.7962 59.0323 72.1802 58.4897C71.5789 57.9323 71.2782 57.1917 71.2782 56.2677C71.2782 55.725 71.3662 55.2483 71.5422 54.8377C71.7328 54.427 72.0262 54.0823 72.4222 53.8036C72.8182 53.525 73.3315 53.3196 73.9622 53.1876C74.6075 53.041 75.3848 52.9677 76.2942 52.9677H78.2302V51.1856C78.2302 50.247 77.9882 49.5357 77.5042 49.0517C77.0202 48.553 76.3089 48.3036 75.3702 48.3036C74.8569 48.3036 74.4095 48.3476 74.0282 48.4356C73.6615 48.5237 73.3682 48.641 73.1482 48.7877V48.8316C73.3095 48.905 73.4562 49.0223 73.5882 49.1837C73.7202 49.3303 73.7862 49.5283 73.7862 49.7776C73.7862 50.1003 73.6908 50.3497 73.5002 50.5257C73.3242 50.7016 73.0822 50.7896 72.7742 50.7896C72.4809 50.7896 72.2389 50.7016 72.0482 50.5257C71.8722 50.3497 71.7842 50.093 71.7842 49.7556C71.7842 49.477 71.8795 49.2057 72.0702 48.9417C72.2608 48.663 72.5248 48.421 72.8622 48.2156C73.2142 47.9956 73.6322 47.827 74.1162 47.7096C74.6148 47.5776 75.1722 47.5117 75.7882 47.5117C76.9762 47.5117 77.9075 47.8123 78.5822 48.4137C79.2569 49.015 79.5942 49.873 79.5942 50.9876V58.3136H81.3322V58.9076C81.1709 59.0103 80.9508 59.091 80.6722 59.1497C80.3935 59.223 80.1075 59.2597 79.8142 59.2597C78.7875 59.2597 78.2742 58.7683 78.2742 57.7856V57.2576H78.1862C78.0835 57.507 77.9442 57.7563 77.7682 58.0056C77.5922 58.255 77.3648 58.475 77.0862 58.6656C76.8222 58.8563 76.4995 59.0103 76.1182 59.1277C75.7369 59.245 75.2822 59.3036 74.7542 59.3036ZM75.2602 58.3797C75.6709 58.3797 76.0595 58.321 76.4262 58.2037C76.7929 58.0863 77.1082 57.925 77.3722 57.7197C77.6362 57.4997 77.8415 57.2357 77.9882 56.9277C78.1495 56.6197 78.2302 56.275 78.2302 55.8937V53.6716H76.4702C75.7662 53.6716 75.1722 53.723 74.6882 53.8256C74.2189 53.9283 73.8375 54.075 73.5442 54.2656C73.2655 54.4563 73.0602 54.6983 72.9282 54.9916C72.8109 55.2703 72.7522 55.593 72.7522 55.9596V56.4436C72.7522 57.045 72.9648 57.5216 73.3902 57.8736C73.8302 58.211 74.4535 58.3797 75.2602 58.3797Z" fill="white"/>
<path d="M86.0677 59.1277C85.4223 59.1277 84.9823 59.0103 84.7477 58.7757C84.513 58.541 84.3957 58.1303 84.3957 57.5437V48.6336H82.8777V47.7757H83.1857C83.4497 47.7757 83.6697 47.761 83.8457 47.7317C84.0217 47.6877 84.161 47.629 84.2637 47.5556C84.3664 47.4823 84.4397 47.387 84.4837 47.2696C84.5423 47.1376 84.5864 46.991 84.6157 46.8297L84.9677 44.7397H85.7597V47.7757H88.7957V48.6336H85.7597V58.1816H88.7957V58.7976C88.6637 58.8416 88.4877 58.8856 88.2677 58.9296C88.0477 58.9736 87.8057 59.0103 87.5417 59.0396C87.2924 59.069 87.0357 59.091 86.7717 59.1057C86.5223 59.1203 86.2877 59.1277 86.0677 59.1277Z" fill="white"/>
<path d="M95.6311 59.3036C94.0618 59.3036 92.8225 58.7903 91.9132 57.7636C91.0185 56.737 90.5712 55.285 90.5712 53.4076C90.5712 52.513 90.6958 51.699 90.9452 50.9656C91.1945 50.2323 91.5391 49.6163 91.9791 49.1176C92.4191 48.6043 92.9472 48.2083 93.5632 47.9296C94.1792 47.651 94.8538 47.5117 95.5872 47.5117C96.3058 47.5117 96.9512 47.6436 97.5232 47.9076C98.1098 48.1717 98.6012 48.5383 98.9972 49.0076C99.4078 49.4623 99.7158 50.0196 99.9212 50.6796C100.141 51.325 100.251 52.029 100.251 52.7916V53.1876H92.0891V53.8696C92.0891 55.2776 92.4265 56.363 93.1012 57.1256C93.7905 57.8736 94.6998 58.2477 95.8292 58.2477C96.7678 58.2477 97.5158 58.0423 98.0732 57.6316C98.6452 57.221 99.0925 56.715 99.4152 56.1137L100.009 56.4656C99.8625 56.8176 99.6645 57.1623 99.4152 57.4996C99.1658 57.837 98.8578 58.145 98.4911 58.4236C98.1245 58.6876 97.6991 58.9003 97.2151 59.0616C96.7458 59.223 96.2178 59.3036 95.6311 59.3036ZM92.0891 52.4176H98.7992V52.2636C98.7992 51.7063 98.7332 51.1856 98.6012 50.7016C98.4692 50.2176 98.2712 49.7997 98.0072 49.4477C97.7432 49.0957 97.4058 48.8243 96.9952 48.6336C96.5992 48.4283 96.1298 48.3256 95.5872 48.3256C95.0298 48.3256 94.5312 48.4283 94.0912 48.6336C93.6658 48.8243 93.3065 49.0957 93.0132 49.4477C92.7198 49.7997 92.4925 50.2176 92.3312 50.7016C92.1698 51.1856 92.0891 51.7136 92.0891 52.2856V52.4176Z" fill="white"/>
<path d="M107.609 58.2477H109.369V44.4756H107.609V43.6837H118.631V47.2257H117.421V44.5416H110.799V50.9216H115.705V49.1176H116.739V53.5836H115.705V51.7796H110.799V58.2477H112.999V59.0396H107.609V58.2477Z" fill="white"/>
<path d="M122.981 44.8056C122.658 44.8056 122.409 44.7176 122.233 44.5416C122.071 44.351 121.991 44.1236 121.991 43.8596V43.7716C121.991 43.5076 122.071 43.2876 122.233 43.1116C122.409 42.921 122.658 42.8256 122.981 42.8256C123.303 42.8256 123.545 42.921 123.707 43.1116C123.883 43.2876 123.971 43.5076 123.971 43.7716V43.8596C123.971 44.1236 123.883 44.351 123.707 44.5416C123.545 44.7176 123.303 44.8056 122.981 44.8056ZM120.561 58.2477H122.299V48.8976L120.561 48.6557V48.0616L123.663 47.5556V58.2477H125.401V59.0396H120.561V58.2477Z" fill="white"/>
<path d="M127.135 58.2477H128.873V48.8976L127.135 48.6557V48.0616L130.193 47.5556V49.5356H130.281C130.369 49.2863 130.508 49.0443 130.699 48.8097C130.89 48.5603 131.124 48.3403 131.403 48.1497C131.682 47.959 132.004 47.805 132.371 47.6876C132.752 47.5703 133.185 47.5117 133.669 47.5117C135.018 47.5117 135.994 47.8636 136.595 48.5676C137.196 49.2716 137.497 50.335 137.497 51.7576V58.2477H139.235V59.0396H134.395V58.2477H136.133V51.8896C136.133 49.6016 135.158 48.4576 133.207 48.4576C132.826 48.4576 132.459 48.509 132.107 48.6116C131.755 48.7143 131.44 48.8756 131.161 49.0956C130.882 49.301 130.655 49.565 130.479 49.8876C130.318 50.1956 130.237 50.555 130.237 50.9656V58.2477H131.975V59.0396H127.135V58.2477Z" fill="white"/>
<path d="M144.557 59.3036C143.457 59.3036 142.599 59.0323 141.983 58.4897C141.382 57.9323 141.081 57.1917 141.081 56.2677C141.081 55.725 141.169 55.2483 141.345 54.8377C141.536 54.427 141.829 54.0823 142.225 53.8036C142.621 53.525 143.134 53.3196 143.765 53.1876C144.41 53.041 145.188 52.9677 146.097 52.9677H148.033V51.1856C148.033 50.247 147.791 49.5357 147.307 49.0517C146.823 48.553 146.112 48.3036 145.173 48.3036C144.66 48.3036 144.212 48.3476 143.831 48.4356C143.464 48.5237 143.171 48.641 142.951 48.7877V48.8316C143.112 48.905 143.259 49.0223 143.391 49.1837C143.523 49.3303 143.589 49.5283 143.589 49.7776C143.589 50.1003 143.494 50.3497 143.303 50.5257C143.127 50.7016 142.885 50.7896 142.577 50.7896C142.284 50.7896 142.042 50.7016 141.851 50.5257C141.675 50.3497 141.587 50.093 141.587 49.7556C141.587 49.477 141.682 49.2057 141.873 48.9417C142.064 48.663 142.328 48.421 142.665 48.2156C143.017 47.9956 143.435 47.827 143.919 47.7096C144.418 47.5776 144.975 47.5117 145.591 47.5117C146.779 47.5117 147.71 47.8123 148.385 48.4137C149.06 49.015 149.397 49.873 149.397 50.9876V58.3136H151.135V58.9076C150.974 59.0103 150.754 59.091 150.475 59.1497C150.196 59.223 149.91 59.2597 149.617 59.2597C148.59 59.2597 148.077 58.7683 148.077 57.7856V57.2576H147.989C147.886 57.507 147.747 57.7563 147.571 58.0056C147.395 58.255 147.168 58.475 146.889 58.6656C146.625 58.8563 146.302 59.0103 145.921 59.1277C145.54 59.245 145.085 59.3036 144.557 59.3036ZM145.063 58.3797C145.474 58.3797 145.862 58.321 146.229 58.2037C146.596 58.0863 146.911 57.925 147.175 57.7197C147.439 57.4997 147.644 57.2357 147.791 56.9277C147.952 56.6197 148.033 56.275 148.033 55.8937V53.6716H146.273C145.569 53.6716 144.975 53.723 144.491 53.8256C144.022 53.9283 143.64 54.075 143.347 54.2656C143.068 54.4563 142.863 54.6983 142.731 54.9916C142.614 55.2703 142.555 55.593 142.555 55.9596V56.4436C142.555 57.045 142.768 57.5216 143.193 57.8736C143.633 58.211 144.256 58.3797 145.063 58.3797Z" fill="white"/>
<path d="M152.873 58.2477H154.611V48.8976L152.873 48.6557V48.0616L155.931 47.5556V49.5356H156.019C156.107 49.2863 156.247 49.0443 156.437 48.8097C156.628 48.5603 156.863 48.3403 157.141 48.1497C157.42 47.959 157.743 47.805 158.109 47.6876C158.491 47.5703 158.923 47.5117 159.407 47.5117C160.757 47.5117 161.732 47.8636 162.333 48.5676C162.935 49.2716 163.235 50.335 163.235 51.7576V58.2477H164.973V59.0396H160.133V58.2477H161.871V51.8896C161.871 49.6016 160.896 48.4576 158.945 48.4576C158.564 48.4576 158.197 48.509 157.845 48.6116C157.493 48.7143 157.178 48.8756 156.899 49.0956C156.621 49.301 156.393 49.565 156.217 49.8876C156.056 50.1956 155.975 50.555 155.975 50.9656V58.2477H157.713V59.0396H152.873V58.2477Z" fill="white"/>
<path d="M171.901 59.3036C171.109 59.3036 170.398 59.1716 169.767 58.9076C169.137 58.629 168.601 58.2403 168.161 57.7416C167.736 57.2283 167.406 56.605 167.171 55.8717C166.937 55.1383 166.819 54.317 166.819 53.4076C166.819 52.4837 166.944 51.655 167.193 50.9216C167.443 50.1883 167.795 49.5723 168.249 49.0737C168.704 48.5603 169.247 48.1717 169.877 47.9076C170.523 47.6436 171.234 47.5117 172.011 47.5117C172.554 47.5117 173.053 47.5703 173.507 47.6876C173.962 47.805 174.351 47.9736 174.673 48.1936C174.996 48.399 175.245 48.6483 175.421 48.9417C175.612 49.2203 175.707 49.521 175.707 49.8437C175.707 50.2103 175.605 50.5036 175.399 50.7236C175.194 50.929 174.923 51.0317 174.585 51.0317C174.219 51.0317 173.94 50.929 173.749 50.7236C173.573 50.5036 173.485 50.247 173.485 49.9537C173.485 49.6897 173.551 49.4623 173.683 49.2716C173.83 49.081 174.028 48.9343 174.277 48.8316V48.7656C173.823 48.4723 173.111 48.3256 172.143 48.3256C171.571 48.3256 171.051 48.4283 170.581 48.6336C170.112 48.839 169.709 49.1323 169.371 49.5136C169.049 49.8803 168.792 50.3203 168.601 50.8336C168.425 51.3323 168.337 51.8896 168.337 52.5056V53.9356C168.337 55.241 168.675 56.2896 169.349 57.0816C170.024 57.859 170.933 58.2477 172.077 58.2477C172.547 58.2477 172.957 58.1963 173.309 58.0937C173.676 57.9763 173.999 57.8223 174.277 57.6316C174.556 57.441 174.791 57.2136 174.981 56.9496C175.187 56.6856 175.37 56.407 175.531 56.1137L176.125 56.4656C175.979 56.8176 175.788 57.1623 175.553 57.4996C175.319 57.837 175.025 58.145 174.673 58.4236C174.336 58.6876 173.933 58.9003 173.463 59.0616C173.009 59.223 172.488 59.3036 171.901 59.3036Z" fill="white"/>
<path d="M183.008 59.3036C181.439 59.3036 180.199 58.7903 179.29 57.7636C178.395 56.737 177.948 55.285 177.948 53.4076C177.948 52.513 178.073 51.699 178.322 50.9656C178.571 50.2323 178.916 49.6163 179.356 49.1176C179.796 48.6043 180.324 48.2083 180.94 47.9296C181.556 47.651 182.231 47.5117 182.964 47.5117C183.683 47.5117 184.328 47.6436 184.9 47.9076C185.487 48.1717 185.978 48.5383 186.374 49.0076C186.785 49.4623 187.093 50.0196 187.298 50.6796C187.518 51.325 187.628 52.029 187.628 52.7916V53.1876H179.466V53.8696C179.466 55.2776 179.803 56.363 180.478 57.1256C181.167 57.8736 182.077 58.2477 183.206 58.2477C184.145 58.2477 184.893 58.0423 185.45 57.6316C186.022 57.221 186.469 56.715 186.792 56.1137L187.386 56.4656C187.239 56.8176 187.041 57.1623 186.792 57.4996C186.543 57.837 186.235 58.145 185.868 58.4236C185.501 58.6876 185.076 58.9003 184.592 59.0616C184.123 59.223 183.595 59.3036 183.008 59.3036ZM179.466 52.4176H186.176V52.2636C186.176 51.7063 186.11 51.1856 185.978 50.7016C185.846 50.2176 185.648 49.7997 185.384 49.4477C185.12 49.0957 184.783 48.8243 184.372 48.6336C183.976 48.4283 183.507 48.3256 182.964 48.3256C182.407 48.3256 181.908 48.4283 181.468 48.6336C181.043 48.8243 180.683 49.0957 180.39 49.4477C180.097 49.7997 179.869 50.2176 179.708 50.7016C179.547 51.1856 179.466 51.7136 179.466 52.2856V52.4176Z" fill="white"/>
</svg>
