<svg width="128" height="128" viewBox="0 0 128 128" fill="none" xmlns="http://www.w3.org/2000/svg">
<path d="M83.7757 63.5493V63.549C83.7756 63.0796 83.8857 62.6161 84.0976 62.1952L99.0731 32.4743L100.169 30.2993H97.7335H76.8903H75.8398L75.4807 31.2866C74.8667 32.9746 73.8837 34.5079 72.6013 35.7763C71.3189 37.0447 69.7689 38.0168 68.0619 38.6219L67.0631 38.976V40.0357V117.978V119.478H68.5631H108.201V125.549H19.7835V119.478H59.4214H60.9214V117.978V40.0335V38.9736L59.9223 38.6196C58.2155 38.0148 56.6655 37.0432 55.3832 35.7752C54.1008 34.5072 53.1178 32.9742 52.5037 31.2865L52.1446 30.2993H51.0942H30.251H27.8155L28.9114 32.4743L43.8868 62.1952C44.0988 62.6161 44.2089 63.0796 44.2087 63.549V63.5493C44.2087 69.1625 41.9618 74.5481 37.9583 78.5207C33.9545 82.4938 28.5216 84.7279 22.8544 84.7279C17.1871 84.7279 11.7543 82.4938 7.75045 78.5207C3.74699 74.5481 1.5 69.1625 1.5 63.5493V63.549C1.49989 63.0796 1.60987 62.6163 1.82178 62.1955C1.82182 62.1954 1.82186 62.1953 1.8219 62.1952L20.1052 25.9099C20.3589 25.4065 20.7497 24.9815 21.2353 24.6838C21.7209 24.3861 22.2815 24.2278 22.8542 24.2279H22.8544H51.0942H52.1447L52.5038 23.2406C53.1178 21.5526 54.1008 20.0193 55.3832 18.7509C56.6656 17.4825 58.2156 16.5105 59.9226 15.9053L60.9214 15.5512V14.4915V1.54932H67.0631V14.4915V15.5512L68.0619 15.9053C69.7689 16.5105 71.3189 17.4825 72.6013 18.7509C73.8837 20.0193 74.8667 21.5526 75.4807 23.2406L75.8398 24.2279H76.8903H105.13C105.13 24.2279 105.13 24.2279 105.13 24.2279C105.656 24.2281 106.172 24.3616 106.63 24.615C107.087 24.8684 107.471 25.233 107.745 25.6731L107.75 25.6819C107.798 25.7571 107.841 25.8347 107.88 25.9144L107.886 25.9257L126.163 62.1952C126.375 62.6161 126.485 63.0796 126.484 63.549V63.5493C126.484 69.1625 124.238 74.5481 120.234 78.5207C116.23 82.4938 110.797 84.7279 105.13 84.7279C99.4629 84.7279 94.03 82.4938 90.0262 78.5207C86.0227 74.5481 83.7757 69.1625 83.7757 63.5493ZM22.8493 78.6565L22.8596 78.6564C25.9922 78.6455 29.0458 77.6732 31.6015 75.8713C34.1573 74.0692 36.0906 71.5253 37.134 68.587L37.8449 66.585H35.7205H9.98645H7.86191L8.57295 68.5871C9.6166 71.5256 11.5502 74.0697 14.1064 75.8717C16.6624 77.6736 19.7164 78.6458 22.8493 78.6565ZM33.7427 60.5136H36.1782L35.0822 58.3386L24.1939 36.7318L22.8544 34.0736L21.5148 36.7318L10.6266 58.3386L9.53051 60.5136H11.9661H33.7427ZM63.9922 33.2993H63.9936C65.5992 33.2979 67.1409 32.6644 68.2797 31.5344C69.4189 30.4039 70.0617 28.8687 70.0631 27.265V27.2636C70.0631 26.0673 69.7056 24.8988 69.037 23.9059C68.3686 22.9132 67.4197 22.1412 66.3117 21.6858C65.2038 21.2304 63.9854 21.1114 62.81 21.3434C61.6346 21.5754 60.5534 22.1484 59.7036 22.9916C58.8537 23.835 58.2736 24.9109 58.0385 26.0839C57.8033 27.257 57.9241 28.4729 58.3851 29.5772C58.846 30.6814 59.6257 31.6232 60.6239 32.2851C61.6219 32.9468 62.7941 33.2993 63.9922 33.2993ZM92.2622 66.585H90.1376L90.8487 68.5871C91.8923 71.5256 93.8259 74.0697 96.3821 75.8717C98.9382 77.6736 101.992 78.6458 105.125 78.6565L105.135 78.6564C108.268 78.6455 111.322 77.6732 113.877 75.8713C116.433 74.0692 118.366 71.5253 119.41 68.587L120.121 66.585H117.996H92.2622ZM106.47 36.7318L105.13 34.0736L103.791 36.7318L92.9023 58.3386L91.8063 60.5136H94.2418H116.018H118.454L117.358 58.3386L106.47 36.7318Z" fill="#111111" stroke="white" stroke-width="3"/>
</svg>
