<svg width="121" height="124" viewBox="0 0 121 124" fill="none" xmlns="http://www.w3.org/2000/svg">
<path d="M119.833 38.8973L119.831 38.8964C119.83 38.8957 119.829 38.895 119.827 38.8943M119.833 38.8973L119.826 38.8933L119.827 38.8943M119.833 38.8973C120.27 39.1489 120.538 39.6151 120.538 40.1191V82.6661C120.538 83.1716 120.269 83.6382 119.832 83.89C119.396 84.1418 118.857 84.1418 118.42 83.89L81.5725 62.6173C81.1352 62.3633 80.8657 61.8982 80.8657 61.3931C80.8657 60.8879 81.1343 60.423 81.572 60.1691L119.833 38.8973ZM119.827 38.8943C119.609 38.7697 119.366 38.7065 119.124 38.7065C118.881 38.7065 118.637 38.7703 118.418 38.8961M119.827 38.8943L118.418 38.8961M118.418 38.8961L118.418 38.8964M118.418 38.8961L118.418 38.8964M118.418 38.8964L81.5724 60.1689L118.418 38.8964ZM58.9822 121.387V121.387V114.738C58.9822 113.959 59.6148 113.327 60.3938 113.327C61.1736 113.327 61.8054 113.959 61.8054 114.739V121.388C61.8054 122.167 61.1737 122.799 60.3938 122.799C59.6143 122.799 58.9806 122.167 58.9822 121.387ZM39.2165 62.617L39.2164 62.617L2.36794 83.89C1.93142 84.1419 1.39273 84.1419 0.956207 83.89C0.517824 83.6362 0.25 83.1716 0.25 82.6661V40.1191C0.25 39.6143 0.518953 39.148 0.956033 38.8963C1.1755 38.7703 1.41946 38.7065 1.66254 38.7065C1.90564 38.7065 2.14959 38.7703 2.3691 38.8963C2.36918 38.8963 2.36926 38.8964 2.36934 38.8964L39.2159 60.1688C39.6532 60.4228 39.9227 60.888 39.9227 61.3931C39.9227 61.8987 39.6529 62.3652 39.2165 62.617ZM3.07508 79.7868V80.2198L3.45008 80.0033L35.3103 61.6083L35.6853 61.3918L35.3103 61.1753L3.45008 42.7803L3.07508 42.5638V42.9968V79.7868ZM117.338 80.0033L117.713 80.2198V79.7868V42.9968V42.5638L117.338 42.7803L85.4775 61.1753L85.1025 61.3918L85.4775 61.6083L117.338 80.0033ZM58.9821 1.71093C58.9821 0.931923 59.6148 0.299316 60.3938 0.299316C61.1736 0.299316 61.8054 0.931831 61.8054 1.71093V8.35923C61.8054 9.13833 61.1736 9.77085 60.3938 9.77085C59.6147 9.77085 58.9821 9.1391 58.9821 8.35923V1.71093ZM58.9822 20.1802C58.9822 19.4012 59.6148 18.7686 60.3938 18.7686C61.1737 18.7686 61.8054 19.4002 61.8054 20.1802V32.0003C61.8054 32.7794 61.1737 33.4119 60.3938 33.4119C59.6147 33.4119 58.9822 32.7802 58.9822 32.0003V20.1802ZM58.9821 91.0977C58.9821 90.3187 59.6148 89.6861 60.3938 89.6861C61.1737 89.6861 61.8054 90.3177 61.8054 91.0977V102.918C61.8054 103.697 61.1736 104.329 60.3938 104.329C59.6147 104.329 58.9821 103.698 58.9821 102.918V91.0977ZM58.9821 67.4594C58.9821 66.6804 59.6148 66.0478 60.3938 66.0478C61.1736 66.0478 61.8054 66.6803 61.8054 67.4594V79.2795C61.8054 80.0586 61.1736 80.6911 60.3938 80.6911C59.6147 80.6911 58.9821 80.0594 58.9821 79.2795V67.4594ZM58.9822 43.8188C58.9822 43.0398 59.6148 42.4072 60.3938 42.4072C61.1737 42.4072 61.8054 43.0397 61.8054 43.8188V55.639C61.8054 56.4181 61.1737 57.0506 60.3938 57.0506C59.6147 57.0506 58.9822 56.4188 58.9822 55.639V43.8188Z" fill="black" stroke="white" stroke-width="0.5"/>
</svg>
