<svg width="126" height="123" viewBox="0 0 126 123" fill="none" xmlns="http://www.w3.org/2000/svg">
<path d="M114.12 104.588C115.601 102.88 116.441 100.685 116.441 98.3719C116.441 93.1168 112.166 88.8464 106.915 88.8464C101.664 88.8464 97.3896 93.1208 97.3896 98.3719C97.3896 100.685 98.2291 102.88 99.7104 104.588C93.4825 107.393 89.3171 113.649 89.3171 120.567V122.589H92.2272V120.567C92.2272 114.089 96.6146 108.309 102.895 106.509C103.444 106.356 103.848 105.895 103.932 105.334C104.017 104.769 103.771 104.212 103.299 103.902C101.418 102.662 100.296 100.6 100.296 98.3719C100.296 94.7232 103.262 91.7525 106.915 91.7525C110.568 91.7525 113.535 94.7191 113.535 98.3719C113.535 100.6 112.416 102.662 110.54 103.898C110.067 104.208 109.817 104.769 109.906 105.33C109.991 105.891 110.394 106.352 110.943 106.505C117.224 108.305 121.611 114.085 121.611 120.563V122.589H124.521V120.567C124.513 113.649 120.348 107.393 114.12 104.588ZM3.42611 31.7741C3.42611 25.2959 7.81349 19.512 14.0979 17.7159C14.6428 17.5585 15.0464 17.0984 15.1352 16.5373C15.22 15.9723 14.9697 15.4153 14.4975 15.1045C12.6206 13.8694 11.4986 11.8028 11.4986 9.57482C11.4986 5.92607 14.4692 2.9554 18.118 2.9554C21.7667 2.9554 24.7374 5.92607 24.7374 9.57482C24.7374 11.8028 23.6194 13.8694 21.7425 15.1045C21.2662 15.4153 21.016 15.9723 21.1008 16.5373C21.1855 17.0984 21.5932 17.5585 22.1381 17.7159C28.4225 19.512 32.8099 25.2919 32.8099 31.7741V33.7922H35.716V31.7741C35.716 24.856 31.5506 18.5998 25.3227 15.7947C26.804 14.0873 27.6395 11.8916 27.6395 9.57482C27.6395 4.32369 23.3691 0.0493164 18.118 0.0493164C12.8669 0.0493164 8.59652 4.32369 8.59652 9.57482C8.59652 11.8916 9.43605 14.0873 10.9133 15.7947C4.68541 18.5998 0.52002 24.852 0.52002 31.7741V33.7922H3.42611V31.7741ZM44.9186 76.1686V78.1908H47.8246V76.1686C47.8246 69.6905 52.212 63.9106 58.4964 62.1144C59.0413 61.957 59.445 61.4969 59.5338 60.9359C59.6185 60.3748 59.3683 59.8138 58.896 59.503C57.0192 58.272 55.9011 56.2054 55.9011 53.9734C55.9011 50.3246 58.8718 47.354 62.5206 47.354C66.1693 47.354 69.14 50.3246 69.14 53.9734C69.14 56.2014 68.022 58.2679 66.1451 59.503C65.6688 59.8178 65.4226 60.3748 65.5074 60.9359C65.5921 61.4969 65.9998 61.957 66.5447 62.1144C72.8251 63.9106 77.2125 69.6905 77.2125 76.1686V78.1908H80.1226V76.1686C80.1226 69.2505 75.9572 62.9984 69.7293 60.1932C71.2106 58.4859 72.0501 56.2902 72.0501 53.9734C72.0501 48.7222 67.7757 44.4479 62.5246 44.4479C57.2735 44.4479 53.0031 48.7222 53.0031 53.9734C53.0031 56.2902 53.8427 58.4859 55.3199 60.1932C49.084 62.9984 44.9186 69.2505 44.9186 76.1686Z" fill="black"/>
<path d="M125.217 39.4942C124.958 26.6719 114.449 16.3262 101.57 16.3262H40.4014V19.2323H101.57C112.928 19.2323 122.184 28.4087 122.315 39.7363C122.184 51.0639 112.928 60.2404 101.57 60.2404H86.5298V63.1465H101.57C114.449 63.1465 124.958 52.8008 125.217 39.9785H125.222C125.222 39.8977 125.222 39.817 125.221 39.7363C125.222 39.6557 125.222 39.575 125.222 39.4942H125.217Z" fill="black"/>
<path d="M84.7521 106.444L71.6182 93.3064L69.5598 95.3649L79.1902 104.991H24.1723C12.7337 104.991 3.42611 95.6838 3.42611 84.2451C3.42611 72.8064 12.7337 63.4989 24.1723 63.4989H38.2991V60.5928H24.1723C11.1272 60.5928 0.52002 71.204 0.52002 84.2451C0.52002 97.2862 11.1313 107.897 24.1723 107.897H79.1902L69.5598 117.524L71.6182 119.582L84.7521 106.444Z" fill="black"/>
<path d="M3.37611 33.7422V31.7741C3.37611 25.2734 7.77847 19.4701 14.084 17.6679C14.61 17.5159 14.9999 17.0717 15.0858 16.5298C15.1676 15.984 14.9259 15.4463 14.47 15.1462C12.5793 13.902 11.4486 11.8198 11.4486 9.57482C11.4486 5.89846 14.4416 2.9054 18.118 2.9054C21.7944 2.9054 24.7874 5.89846 24.7874 9.57482C24.7874 11.8198 23.6608 13.902 21.77 15.1462L21.7698 15.1463C21.31 15.4464 21.0684 15.9841 21.1502 16.5299L3.37611 33.7422ZM3.37611 33.7422H0.57002V31.7741C0.57002 24.8721 4.72344 18.6375 10.9338 15.8402L10.995 15.8127L10.9511 15.7619C9.48163 14.0636 8.64652 11.8794 8.64652 9.57482C8.64652 4.35127 12.8945 0.0993164 18.118 0.0993164C23.3415 0.0993164 27.5895 4.35127 27.5895 9.57482C27.5895 11.8795 26.7584 14.0636 25.2849 15.7619L25.2409 15.8126L25.3021 15.8402C31.5125 18.6375 35.666 24.8761 35.666 31.7741V33.7422H32.8599V31.7741C32.8599 25.2694 28.4575 19.4701 22.152 17.6679C21.6256 17.5158 21.232 17.0714 21.1502 16.5299L3.37611 33.7422ZM86.7339 60.5428H86.6839V60.5928V63.0965H86.5798V60.2904H101.57C112.955 60.2904 122.234 51.0919 122.365 39.7369L122.365 39.7358C122.234 28.3808 112.955 19.1823 101.57 19.1823H40.4514V16.3762H101.57C114.422 16.3762 124.909 26.7 125.167 39.4952L125.168 39.5442H125.172C125.172 39.6081 125.171 39.672 125.171 39.7358L125.171 39.7368C125.171 39.8007 125.172 39.8645 125.172 39.9285H125.168L125.167 39.9775C124.909 52.7726 114.422 63.0965 101.57 63.0965H86.7839V60.6428H100.861V60.5428H86.7339ZM114.082 104.555L114.038 104.606L114.099 104.633C120.31 107.431 124.463 113.669 124.471 120.567V122.539H121.661V120.563C121.661 114.062 117.259 108.263 110.957 106.457L110.957 106.457C110.427 106.309 110.037 105.865 109.955 105.323L109.955 105.323C109.87 104.781 110.111 104.239 110.567 103.939C112.458 102.695 113.585 100.617 113.585 98.3719C113.585 94.6915 110.595 91.7025 106.915 91.7025C103.235 91.7025 100.246 94.6956 100.246 98.3719C100.246 100.617 101.376 102.695 103.271 103.943C103.727 104.243 103.965 104.781 103.883 105.327C103.801 105.869 103.411 106.313 102.882 106.461L102.881 106.461C96.5797 108.267 92.1772 114.066 92.1772 120.567V122.539H89.3671V120.567C89.3671 113.669 93.5205 107.431 99.7309 104.633L99.7922 104.606L99.7482 104.555C98.2747 102.857 97.4396 100.673 97.4396 98.3719C97.4396 93.1484 101.692 88.8964 106.915 88.8964C112.139 88.8964 116.391 93.1444 116.391 98.3719C116.391 100.673 115.555 102.857 114.082 104.555ZM47.7747 76.1686V78.1408H44.9686V76.1686C44.9686 69.2707 49.122 63.0361 55.3404 60.2388L55.4017 60.2113L55.3577 60.1605C53.8882 58.4621 53.0531 56.278 53.0531 53.9734C53.0531 48.7498 57.3011 44.4979 62.5246 44.4979C67.7481 44.4979 72.0001 48.7499 72.0001 53.9734C72.0001 56.278 71.165 58.4621 69.6915 60.1604L69.6475 60.2112L69.7088 60.2388C75.9192 63.0361 80.0726 69.2707 80.0726 76.1686V78.1408H77.2625V76.1686C77.2625 69.6679 72.86 63.8686 66.5584 62.0664C66.0322 61.9143 65.6386 61.4699 65.5568 60.9284C65.475 60.3866 65.7126 59.8489 66.1726 59.5448C68.0634 58.3005 69.19 56.2183 69.19 53.9734C69.19 50.297 66.1969 47.304 62.5206 47.304C58.8442 47.304 55.8512 50.297 55.8512 53.9734C55.8512 56.2223 56.9777 58.3045 58.8685 59.5448C59.3244 59.8448 59.5661 60.3865 59.4844 60.9282C59.3985 61.4701 59.0087 61.9144 58.4827 62.0664C52.1771 63.8686 47.7747 69.6679 47.7747 76.1686ZM79.2256 104.956L69.6305 95.3649L71.6182 93.3772L84.6814 106.444L71.6182 119.512L69.6305 117.524L79.2256 107.933L79.311 107.847H79.1902H24.1723C11.1589 107.847 0.57002 97.2585 0.57002 84.2451C0.57002 71.2316 11.1549 60.6428 24.1723 60.6428H38.2491V63.4489H24.1723C12.706 63.4489 3.37611 72.7788 3.37611 84.2451C3.37611 95.7114 12.706 105.041 24.1723 105.041H79.1902H79.311L79.2256 104.956Z" stroke="white" stroke-width="0.1"/>
</svg>
