<svg width="114" height="51" viewBox="0 0 114 51" fill="none" xmlns="http://www.w3.org/2000/svg">
<path d="M7.45658 28.2832C10.8545 28.2832 12.6243 26.419 13.285 23.5402L9.98143 22.7379C9.62748 24.2953 9.03756 25.428 7.38579 25.428C5.47445 25.428 4.74295 23.8234 4.74295 21.2041V18.3253C4.74295 15.7061 5.47445 14.1015 7.38579 14.1015C9.03756 14.1015 9.62748 15.2342 9.98143 16.7915L13.285 15.9893C12.6243 13.1104 10.8545 11.2463 7.45658 11.2463C3.04398 11.2463 0.967467 14.3611 0.967467 19.7647C0.967467 25.1684 3.04398 28.2832 7.45658 28.2832ZM25.6641 28H29.2272V11.5295H25.6641V18.2073H21.511V11.5295H17.9479V28H21.511V21.1097H25.6641V28ZM47.0571 28L42.5973 11.5295H37.5948L33.135 28H36.7217L37.7364 24.0357H42.2434L43.2816 28H47.0571ZM41.7006 21.1805H38.3027L39.9073 14.951H40.0961L41.7006 21.1805ZM57.9968 28H62.2442V11.5295H59.2238V22.4784H58.9642L55.2124 11.5295H50.9649V28H53.9853V17.0511H54.2449L57.9968 28ZM79.6258 14.4319V11.5295H66.6004V14.4319H71.3433V28H74.8828V14.4319H79.6258ZM87.8282 21.8884H89.4564L92.2172 28H96.0871L92.8543 21.4165C94.6949 20.8974 95.7567 19.0804 95.7567 16.7679C95.7567 13.5824 93.9398 11.5295 90.707 11.5295H84.3359V28H87.8282V21.8884ZM87.8282 19.1512V14.3847H89.8576C91.5093 14.3847 92.0757 14.9746 92.0757 16.414V17.1219C92.0757 18.5613 91.5093 19.1512 89.8576 19.1512H87.8282ZM107.9 28V22.1716L113.115 11.5295H109.316L107.57 15.3521L106.295 18.5849H106.107L104.832 15.3521L103.086 11.5295H99.1455L104.36 22.1716V28H107.9Z" fill="#000046"/>
<path d="M5.10083 44.5078C6.62451 44.5078 7.73019 43.6852 8.28303 42.4043L7.62232 42.0132C7.2178 43.0919 6.35483 43.7796 5.10083 43.7796C3.34793 43.7796 2.29619 42.5121 2.29619 40.2064V39.1412C2.29619 36.822 3.34793 35.5005 5.10083 35.5005C6.28741 35.5005 7.1369 36.1478 7.5549 37.1725L8.21561 36.7815C7.64928 35.541 6.59754 34.7724 5.10083 34.7724C2.78161 34.7724 1.43322 36.4983 1.43322 39.667C1.43322 42.8492 2.78161 44.5078 5.10083 44.5078ZM12.6139 44.5078C14.4342 44.5078 15.6208 43.1594 15.6208 40.8941C15.6208 38.6288 14.4342 37.2804 12.6139 37.2804C10.7936 37.2804 9.60697 38.6288 9.60697 40.8941C9.60697 43.1594 10.7936 44.5078 12.6139 44.5078ZM12.6139 43.8201C11.279 43.8201 10.4295 42.9301 10.4295 41.3256V40.4626C10.4295 38.8445 11.279 37.9681 12.6139 37.9681C13.9488 37.9681 14.7983 38.858 14.7983 40.4626V41.3256C14.7983 42.9436 13.9488 43.8201 12.6139 43.8201ZM18.3419 44.3459V39.6266C18.3419 38.7367 19.1644 38.1973 20.3105 38.1973H20.9173V37.4422H20.4588C19.2723 37.4422 18.6655 38.0355 18.3958 38.6827H18.3419V37.4422H17.5733V44.3459H18.3419ZM22.3927 47.0427H23.1613V43.2403H23.2018C23.5793 44.0089 24.2535 44.5078 25.3052 44.5078C27.0716 44.5078 28.1503 43.1729 28.1503 40.8941C28.1503 38.6153 27.0716 37.2804 25.3052 37.2804C24.2535 37.2804 23.5389 37.7793 23.2018 38.5479H23.1613V37.4422H22.3927V47.0427ZM25.13 43.8201C24.0647 43.8201 23.1613 43.2133 23.1613 42.2425V39.5052C23.1613 38.6018 24.0647 37.9681 25.13 37.9681C26.5053 37.9681 27.3278 38.9254 27.3278 40.4087V41.3795C27.3278 42.8627 26.5053 43.8201 25.13 43.8201ZM32.5895 44.5078C34.4098 44.5078 35.5964 43.1594 35.5964 40.8941C35.5964 38.6288 34.4098 37.2804 32.5895 37.2804C30.7692 37.2804 29.5826 38.6288 29.5826 40.8941C29.5826 43.1594 30.7692 44.5078 32.5895 44.5078ZM32.5895 43.8201C31.2546 43.8201 30.4051 42.9301 30.4051 41.3256V40.4626C30.4051 38.8445 31.2546 37.9681 32.5895 37.9681C33.9244 37.9681 34.7739 38.858 34.7739 40.4626V41.3256C34.7739 42.9436 33.9244 43.8201 32.5895 43.8201ZM38.3175 44.3459V39.6266C38.3175 38.7367 39.14 38.1973 40.2861 38.1973H40.8929V37.4422H40.4345C39.2479 37.4422 38.6411 38.0355 38.3714 38.6827H38.3175V37.4422H37.5489V44.3459H38.3175ZM47.8704 44.3459V43.6718H46.94V39.5861C46.94 38.1299 46.0366 37.2804 44.432 37.2804C43.178 37.2804 42.4094 37.8737 42.0319 38.6692L42.5173 39.0738C42.8948 38.3591 43.4881 37.9546 44.405 37.9546C45.5781 37.9546 46.1714 38.5344 46.1714 39.667V40.4761H44.5803C42.5847 40.4761 41.7757 41.2447 41.7757 42.4717C41.7757 43.7527 42.6117 44.5078 44.0544 44.5078C45.1332 44.5078 45.8343 44.0223 46.1444 43.2538H46.2119V43.4965C46.2523 44.0089 46.495 44.3459 47.0883 44.3459H47.8704ZM44.1623 43.847C43.2184 43.847 42.5847 43.4156 42.5847 42.62V42.2964C42.5847 41.5278 43.178 41.0559 44.5533 41.0559H46.1714V42.3369C46.1714 43.2672 45.2815 43.847 44.1623 43.847ZM52.0409 44.3459V43.6718H50.5846V38.1164H52.1488V37.4422H50.5846V35.514H49.8835V36.9163C49.8835 37.3074 49.7756 37.4422 49.3981 37.4422H48.616V38.1164H49.8161V43.4965C49.8161 44.0089 50.1127 44.3459 50.6655 44.3459H52.0409ZM56.4104 44.5078C57.7183 44.5078 58.6757 43.8336 59.1072 42.8223L58.5409 42.4447C58.1633 43.3481 57.4352 43.8336 56.4509 43.8336C55.0351 43.8336 54.1991 42.8223 54.1991 41.3795V41.0424H59.3094V40.6783C59.3094 38.6558 58.1633 37.2804 56.3969 37.2804C54.5631 37.2804 53.39 38.6288 53.39 40.8941C53.39 43.1594 54.5631 44.5078 56.4104 44.5078ZM56.3969 37.9276C57.6374 37.9276 58.4734 38.885 58.4734 40.3412V40.4491H54.1991V40.3817C54.1991 38.9254 55.062 37.9276 56.3969 37.9276ZM65.3407 44.3459V39.9232H69.6016V39.2086H65.3407V35.6489H69.9118V34.9342H64.5317V44.3459H65.3407ZM72.2418 35.568C72.6059 35.568 72.7677 35.3657 72.7677 35.0825V34.9477C72.7677 34.6645 72.6059 34.4623 72.2418 34.4623C71.8778 34.4623 71.716 34.6645 71.716 34.9477V35.0825C71.716 35.3657 71.8778 35.568 72.2418 35.568ZM71.8643 44.3459H72.6329V37.4422H71.8643V44.3459ZM75.9116 44.3459V39.4918C75.9116 38.467 76.8151 37.9681 77.7859 37.9681C78.932 37.9681 79.5523 38.6423 79.5523 40.0446V44.3459H80.3209V39.9098C80.3209 38.2243 79.4579 37.2804 77.9882 37.2804C76.8825 37.2804 76.2622 37.8198 75.9521 38.5344H75.9116V37.4422H75.1431V44.3459H75.9116ZM88.2693 44.3459V43.6718H87.3389V39.5861C87.3389 38.1299 86.4355 37.2804 84.8309 37.2804C83.5769 37.2804 82.8083 37.8737 82.4308 38.6692L82.9162 39.0738C83.2937 38.3591 83.887 37.9546 84.8039 37.9546C85.977 37.9546 86.5703 38.5344 86.5703 39.667V40.4761H84.9792C82.9836 40.4761 82.1746 41.2447 82.1746 42.4717C82.1746 43.7527 83.0106 44.5078 84.4534 44.5078C85.5321 44.5078 86.2332 44.0223 86.5434 43.2538H86.6108V43.4965C86.6512 44.0089 86.8939 44.3459 87.4872 44.3459H88.2693ZM84.5612 43.847C83.6174 43.847 82.9836 43.4156 82.9836 42.62V42.2964C82.9836 41.5278 83.5769 41.0559 84.9523 41.0559H86.5703V42.3369C86.5703 43.2672 85.6804 43.847 84.5612 43.847ZM90.6201 44.3459V39.4918C90.6201 38.467 91.5235 37.9681 92.4944 37.9681C93.6405 37.9681 94.2608 38.6423 94.2608 40.0446V44.3459H95.0293V39.9098C95.0293 38.2243 94.1664 37.2804 92.6966 37.2804C91.591 37.2804 90.9707 37.8198 90.6606 38.5344H90.6201V37.4422H89.8515V44.3459H90.6201ZM99.8765 44.5078C101.144 44.5078 101.98 43.9145 102.425 42.9976L101.859 42.62C101.468 43.3886 100.82 43.8201 99.8765 43.8201C98.4742 43.8201 97.7191 42.8358 97.7191 41.3795V40.4087C97.7191 38.9524 98.4742 37.9681 99.8765 37.9681C100.78 37.9681 101.36 38.3861 101.683 39.1277L102.331 38.8041C101.926 37.9007 101.144 37.2804 99.8765 37.2804C97.9887 37.2804 96.8965 38.6153 96.8965 40.8941C96.8965 43.1729 97.9887 44.5078 99.8765 44.5078ZM106.501 44.5078C107.809 44.5078 108.766 43.8336 109.198 42.8223L108.631 42.4447C108.254 43.3481 107.526 43.8336 106.541 43.8336C105.125 43.8336 104.289 42.8223 104.289 41.3795V41.0424H109.4V40.6783C109.4 38.6558 108.254 37.2804 106.487 37.2804C104.654 37.2804 103.48 38.6288 103.48 40.8941C103.48 43.1594 104.654 44.5078 106.501 44.5078ZM106.487 37.9276C107.728 37.9276 108.564 38.885 108.564 40.3412V40.4491H104.289V40.3817C104.289 38.9254 105.152 37.9276 106.487 37.9276Z" fill="#000046"/>
</svg>
