<svg width="44" height="42" viewBox="0 0 44 42" fill="none" xmlns="http://www.w3.org/2000/svg">
<ellipse cx="22.5315" cy="19.7551" rx="13.519" ry="13.01" fill="white"/>
<path d="M21.5303 0C9.64019 0 0 9.2772 0 20.7196C0 32.162 9.64019 41.4392 21.5303 41.4392C33.4204 41.4392 43.0606 32.162 43.0606 20.7196C43.0606 9.2772 33.4204 0 21.5303 0ZM17.9419 27.6261H14.3535V17.2663H17.9419V27.6261ZM16.1477 15.7279C15.0586 15.7279 14.1741 14.8715 14.1741 13.8131C14.1741 12.7564 15.0569 11.8982 16.1477 11.8982C17.2386 11.8982 18.1213 12.7564 18.1213 13.8131C18.1213 14.8715 17.2368 15.7279 16.1477 15.7279ZM30.5013 27.6261H26.9165V22.6862C26.9165 19.4384 23.3245 19.713 23.3245 22.6862V27.6261H19.7361V17.2663H23.3245V19.1536C24.889 16.3633 30.5013 16.1561 30.5013 21.8264V27.6261Z" fill="#0062FB"/>
</svg>
